<svg width="15" height="12" viewBox="0 0 15 12" fill="none" xmlns="http://www.w3.org/2000/svg">
<path d="M0.949578 4.00256C0.697838 4.00256 0.456279 4.10233 0.277671 4.28003C0.0997785 4.45949 0 4.70206 0 4.95496C0 5.20786 0.0997785 5.45054 0.277671 5.63L6.19872 11.5864C6.07623 11.4169 6.00908 11.2119 6.00908 11V8.69459L1.62142 4.28003C1.44282 4.10233 1.20132 4.00256 0.949578 4.00256Z" fill="#404F50"/>
<path d="M12.6736 4.06641C12.5574 4.11633 12.4523 4.18894 12.3644 4.28003L8.00573 8.66547V11C8.00573 11.178 7.95835 11.3511 7.87058 11.5024L13.7072 5.63C13.7984 5.54232 13.8713 5.43728 13.9216 5.32104C13.9718 5.20481 13.9985 5.07967 13.9999 4.953C14.0014 4.82634 13.9775 4.70072 13.9299 4.58337C13.8823 4.46603 13.8118 4.35939 13.7226 4.26965C13.6333 4.17992 13.5271 4.10881 13.4101 4.06067C13.2931 4.01253 13.1678 3.98829 13.0413 3.98926C12.9149 3.99023 12.7898 4.01648 12.6736 4.06641Z" fill="#404F50"/>
<path d="M7.71331 0.292847C7.52609 0.10531 7.27218 0 7.0074 0C6.74263 0 6.48872 0.10531 6.3015 0.292847C6.11427 0.480383 6.00908 0.734784 6.00908 1V8.69459V11C6.00908 11.2119 6.07623 11.4169 6.19872 11.5864L6.32154 11.71C6.50139 11.8827 6.74177 11.9781 6.99095 11.9752L6.99293 11.9752L6.99491 11.9752C7.24409 11.9781 7.48448 11.8827 7.66432 11.71L7.87058 11.5024C7.95835 11.3511 8.00573 11.178 8.00573 11V8.66547V1C8.00573 0.734784 7.90053 0.480383 7.71331 0.292847Z" fill="#404F50"/>
</svg>
