<?xml version="1.0" encoding="utf-8"?>
<!-- Generator: Adobe Illustrator 21.0.0, SVG Export Plug-In . SVG Version: 6.00 Build 0)  -->
<svg version="1.1" id="Слой_1" xmlns="http://www.w3.org/2000/svg" xmlns:xlink="http://www.w3.org/1999/xlink" x="0px" y="0px"
	 viewBox="0 0 15.8 17.2" enable-background="new 0 0 15.8 17.2" xml:space="preserve">
<path d="M13.1,7.4H5.3L9.8,3c0.4-0.4,0.4-1,0-1.3c-0.4-0.4-1-0.4-1.4,0l-6,6C2.2,7.9,2.1,8.1,2.1,8.4c0,0.3,0.3,0.6,0.4,0.7L8.4,15
	c0.4,0.4,1,0.4,1.4,0s0.4-1,0-1.3L5.4,9.3h7.7c0.5,0,1-0.4,1-1C14,7.8,13.6,7.4,13.1,7.4z"/>
</svg>
