<?xml version="1.0" encoding="utf-8"?>
<!-- Generator: Adobe Illustrator 21.0.0, SVG Export Plug-In . SVG Version: 6.00 Build 0)  -->
<svg version="1.1" id="Слой_1" xmlns="http://www.w3.org/2000/svg" xmlns:xlink="http://www.w3.org/1999/xlink" x="0px" y="0px"
	 viewBox="0 0 30.2 29.2" style="enable-background:new 0 0 30.2 29.2;" xml:space="preserve">
<style type="text/css">
	.st0{fill:#D7DBDD;}
	.st1{fill:#444C51;}
</style>
<circle class="st0" cx="15" cy="15.6" r="11.7"/>
<path class="st1" d="M15,2C7.4,2,1.4,8.1,1.4,15.6S7.4,29.2,15,29.2s13.6-6.1,13.6-13.6S22.5,2,15,2z M15,27.3
	c-6.5,0-11.7-5.2-11.7-11.7S8.5,3.9,15,3.9s11.7,5.2,11.7,11.7S21.4,27.3,15,27.3z"/>
<g>
	<path class="st1" d="M15.3,16.2l-2.4,0V15l2.4,0c0.5,0,0.9-0.4,0.9-0.9c0-0.5-0.4-0.9-0.9-0.9l-2.4,0l0-2.1c0,0-3.1,0-3.2,0
		c-2,0-3.7,1.3-4.3,3.2c0,0,0,0.1,0,0.1c-0.1,0.2-0.1,0.4-0.1,0.5H2.4v1.4h2.9c0,0.2,0.1,0.5,0.1,0.7c0,0,0,0.1,0,0.1
		c0.6,1.8,2.3,3.2,4.3,3.2c0,0,3.1,0,3.2,0l0-2.1h2.4c0.5,0,0.9-0.4,0.9-0.9C16.2,16.6,15.8,16.2,15.3,16.2z"/>
	<path class="st1" d="M27.4,14.9h-2.7c0-0.2-0.1-0.4-0.1-0.6c0,0,0-0.1,0-0.1c-0.6-1.8-2.3-3.2-4.3-3.2c0,0-3.1,0-3.2,0l0,2.1l2.4,0
		c0.5,0,0.9,0.4,0.9,0.9c0,0.5-0.4,0.9-0.9,0.9l-2.4,0V15h0v1.2l2.4,0c0.5,0,0.9,0.4,0.9,0.9c0,0.5-0.4,0.9-0.9,0.9h-2.4V18h0l0,2.1
		c0,0,3.1,0,3.2,0c2,0,3.7-1.3,4.3-3.2c0,0,0-0.1,0-0.1c0.1-0.2,0.1-0.4,0.1-0.6h2.7V14.9z"/>
</g>
</svg>
