<svg width="32" height="11" viewBox="0 0 32 11" fill="none" xmlns="http://www.w3.org/2000/svg">
<path d="M16.5 6.10003H14.1V4.80002H16.5C17 4.80002 17.4 4.40002 17.4 3.90002C17.4 3.40002 17 3.00002 16.5 3.00002H14.1V0.900024C14.1 0.900024 11 0.900024 10.9 0.900024C8.6 0.900024 6.7 2.70002 6.4 4.90002H1C0.7 4.90002 0.5 5.10002 0.5 5.40002C0.5 5.70002 0.7 5.90002 1 5.90002H6.4C6.7 8.20002 8.6 9.90002 10.9 9.90002C10.9 9.90002 14 9.90002 14.1 9.90002V7.80002H16.5C17 7.80002 17.4 7.40002 17.4 6.90002C17.4 6.50002 17 6.10003 16.5 6.10003ZM31.4 5.00002H26C25.7 2.70002 23.8 1.00002 21.5 1.00002C21.5 1.00002 18.4 1.00002 18.3 1.00002V3.10003H20.3C20.8 3.10003 21.2 3.50002 21.2 4.00002C21.2 4.50002 20.8 4.90002 20.3 4.90002H18.3V6.20003H20.3C20.8 6.20003 21.2 6.60003 21.2 7.10003C21.2 7.60003 20.8 8.00002 20.3 8.00002H18.3V10.1C18.3 10.1 21.4 10.1 21.5 10.1C23.8 10.1 25.7 8.30003 26 6.10003H31.4C31.7 6.10003 31.9 5.90003 31.9 5.60003C32 5.20003 31.7 5.00002 31.4 5.00002Z" fill="#A9AEB1"/>
</svg>
