<?xml version="1.0" encoding="utf-8"?>
<!-- Generator: Adobe Illustrator 21.0.0, SVG Export Plug-In . SVG Version: 6.00 Build 0)  -->
<svg version="1.1" id="Слой_1" xmlns="http://www.w3.org/2000/svg" xmlns:xlink="http://www.w3.org/1999/xlink" x="0px" y="0px"
	 viewBox="0 0 180 501" style="enable-background:new 0 0 180 501;" xml:space="preserve">
<style type="text/css">
	.st0{fill:#7F3C3E;}
	.st1{fill:#99484B;}
</style>
<polygon class="st0" points="139,23.1 105.3,36 122.8,43.1 133.3,58.8 "/>
<polygon class="st1" points="125.1,46.6 118,48.7 118.9,41.6 138.9,23 "/>
<g>
	<g>
		<path class="st1" d="M107.3,60.7l-0.8-0.6c0.8-1.1,1.2-1.6,1.2-1.6l0.8,0.6C108.5,59.1,108.1,59.6,107.3,60.7z"/>
	</g>
	<g>
		<path class="st1" d="M40.1,475.3c-0.7-1.1-1.5-2.2-2.2-3.4l0.8-0.5c0.7,1.2,1.4,2.3,2.2,3.4L40.1,475.3z M35.9,468.5
			c-0.6-1.1-1.3-2.3-1.9-3.5l0.9-0.5c0.7,1.2,1.3,2.4,1.9,3.5L35.9,468.5z M32.1,461.4c-0.6-1.2-1.2-2.4-1.7-3.6l0.9-0.4
			c0.6,1.3,1.2,2.5,1.7,3.6L32.1,461.4z M28.7,454c-0.5-1.2-1-2.4-1.5-3.7l0.9-0.4c0.5,1.3,1,2.5,1.5,3.7L28.7,454z M25.7,446.6
			c-0.5-1.2-0.9-2.5-1.3-3.8l0.9-0.3c0.4,1.3,0.9,2.5,1.3,3.8L25.7,446.6z M23.2,438.9c-0.4-1.3-0.8-2.5-1.2-3.9l1-0.3
			c0.4,1.3,0.8,2.6,1.1,3.8L23.2,438.9z M21,431.2c-0.3-1.3-0.7-2.6-1-3.9l1-0.2c0.3,1.3,0.6,2.6,1,3.9L21,431.2z M19.1,423.4
			c-0.3-1.3-0.5-2.6-0.8-3.9l1-0.2c0.3,1.3,0.5,2.6,0.8,3.9L19.1,423.4z M17.6,415.5c-0.2-1.3-0.4-2.6-0.6-4l1-0.1
			c0.2,1.3,0.4,2.7,0.6,4L17.6,415.5z M16.4,407.5c-0.2-1.3-0.3-2.6-0.5-4l1-0.1c0.1,1.3,0.3,2.7,0.5,4L16.4,407.5z M15.6,399.5
			c-0.1-1.3-0.2-2.7-0.3-4l1-0.1c0.1,1.3,0.2,2.7,0.3,4L15.6,399.5z M15.1,391.5c-0.1-1.3-0.1-2.7-0.1-4l1,0c0,1.3,0.1,2.7,0.1,4
			L15.1,391.5z M14.9,383.4l0-0.9c0-1.1,0-2.1,0-3.2l1,0c0,1,0,2.1,0,3.1l0,0.9L14.9,383.4z M16.2,375.4l-1-0.1
			c0.1-1.3,0.2-2.7,0.3-4l1,0.1C16.3,372.8,16.2,374.1,16.2,375.4z M16.9,367.5l-1-0.1c0.2-1.3,0.4-2.7,0.6-4l1,0.2
			C17.3,364.8,17.1,366.2,16.9,367.5z M18.2,359.6l-1-0.2c0.3-1.3,0.5-2.6,0.8-3.9l1,0.2C18.7,357,18.5,358.3,18.2,359.6z M20,351.8
			l-1-0.3c0.3-1.3,0.7-2.6,1.1-3.9l1,0.3C20.7,349.2,20.3,350.5,20,351.8z M22.2,344.1l-1-0.3c0.4-1.3,0.9-2.5,1.3-3.8l0.9,0.3
			C23.1,341.6,22.6,342.9,22.2,344.1z M24.9,336.6l-0.9-0.4c0.5-1.2,1-2.5,1.5-3.7l0.9,0.4C25.9,334.1,25.4,335.4,24.9,336.6z
			 M28.1,329.2l-0.9-0.4c0.6-1.2,1.1-2.4,1.7-3.6l0.9,0.4C29.2,326.8,28.6,328,28.1,329.2z M31.6,322.1l-0.9-0.5
			c0.6-1.2,1.3-2.4,1.9-3.5l0.9,0.5C32.8,319.7,32.2,320.9,31.6,322.1z M35.5,315.1l-0.9-0.5c0.7-1.1,1.4-2.3,2.1-3.4l0.8,0.5
			C36.9,312.8,36.2,314,35.5,315.1z M135.7,309.6c-0.6,0-1.2,0-1.8,0l0-1c1.4,0.1,2.7,0,4,0l0,1
			C137.1,309.6,136.4,309.6,135.7,309.6z M129.8,309.2c-0.5-0.1-0.9-0.1-1.4-0.2c-0.9-0.1-1.7-0.3-2.6-0.4l0.2-1
			c0.9,0.1,1.7,0.3,2.6,0.4c0.5,0.1,0.9,0.1,1.4,0.2L129.8,309.2z M141.9,309.2l-0.1-1c1.3-0.2,2.6-0.5,3.9-0.8l0.3,1
			C144.6,308.7,143.3,309,141.9,309.2z M39.8,308.4l-0.8-0.6c0.8-1.1,1.5-2.2,2.3-3.3l0.8,0.6C41.3,306.2,40.6,307.3,39.8,308.4z
			 M121.8,307.9c-1.3-0.3-2.6-0.6-3.9-0.9l0.2-1c1.3,0.3,2.6,0.6,3.9,0.9L121.8,307.9z M149.8,307.1l-0.4-0.9
			c1.2-0.5,2.4-1.1,3.5-1.7l0.5,0.9C152.3,306,151,306.6,149.8,307.1z M114,306c-1.3-0.4-2.6-0.8-3.9-1.2l0.3-1
			c1.3,0.4,2.5,0.8,3.8,1.2L114,306z M106.3,303.5c-1.3-0.5-2.5-0.9-3.8-1.5l0.4-0.9c1.2,0.5,2.5,1,3.7,1.4L106.3,303.5z M156.8,303
			l-0.6-0.8c1-0.8,2-1.7,2.9-2.7l0.7,0.7C158.9,301.2,157.9,302.2,156.8,303z M44.5,301.9l-0.8-0.6c0.8-1.1,1.6-2.1,2.5-3.2l0.8,0.6
			C46.1,299.8,45.3,300.8,44.5,301.9z M98.9,300.4c-1.2-0.6-2.5-1.1-3.7-1.7l0.4-0.9c1.2,0.6,2.4,1.1,3.6,1.7L98.9,300.4z
			 M162.3,297l-0.8-0.5c0.7-1.1,1.3-2.3,1.8-3.5l0.9,0.4C163.7,294.6,163.1,295.9,162.3,297z M91.6,296.9c-1.2-0.6-2.4-1.3-3.5-2
			l0.5-0.9c1.2,0.7,2.3,1.3,3.5,1.9L91.6,296.9z M49.5,295.7l-0.8-0.7c0.9-1,1.8-2,2.7-3l0.7,0.7C51.2,293.7,50.4,294.7,49.5,295.7z
			 M84.6,292.9c-1.1-0.7-2.3-1.5-3.4-2.2l0.6-0.8c1.1,0.7,2.2,1.5,3.4,2.2L84.6,292.9z M54.9,289.8l-0.7-0.7c0.9-1,1.9-1.9,2.8-2.9
			l0.7,0.7C56.7,287.9,55.8,288.8,54.9,289.8z M165.5,289.5l-1-0.2c0.3-1.3,0.5-2.6,0.5-3.9l1,0C166,286.8,165.8,288.2,165.5,289.5z
			 M77.9,288.3c-1.1-0.8-2.2-1.6-3.2-2.4l0.6-0.8c1,0.8,2.1,1.6,3.2,2.4L77.9,288.3z M60.6,284.2l-0.7-0.7c1-0.9,2-1.8,3-2.7
			l0.7,0.8C62.6,282.4,61.6,283.3,60.6,284.2z M71.6,283.4c-1-0.9-2.1-1.8-3-2.7l0.7-0.7c1,0.9,2,1.8,3,2.6L71.6,283.4z
			 M164.9,281.5c-0.2-1.3-0.5-2.6-0.8-3.8l1-0.3c0.4,1.3,0.7,2.7,0.9,4L164.9,281.5z M66.6,279l-0.6-0.8c1-0.8,2.1-1.7,3.2-2.5
			l0.6,0.8C68.7,277.3,67.7,278.1,66.6,279z M65.6,277.9c-1-0.9-1.9-1.9-2.8-2.9l0.7-0.7c0.9,1,1.8,1.9,2.8,2.9L65.6,277.9z
			 M73,274.1l-0.6-0.8c1.1-0.8,2.2-1.5,3.3-2.3l0.5,0.8C75.2,272.6,74.1,273.4,73,274.1z M162.5,274c-0.6-1.1-1.3-2.3-2.1-3.3
			l0.8-0.6c0.8,1.1,1.5,2.3,2.1,3.5L162.5,274z M60.1,272c-0.9-1-1.7-2.1-2.6-3.1l0.8-0.6c0.8,1,1.7,2.1,2.5,3.1L60.1,272z
			 M79.7,269.8l-0.5-0.9c1.2-0.7,2.3-1.4,3.5-2l0.5,0.9C82,268.4,80.8,269.1,79.7,269.8z M157.9,267.7c-0.9-0.9-1.9-1.8-2.9-2.6
			l0.6-0.8c1.1,0.8,2.1,1.8,3,2.7L157.9,267.7z M86.7,265.9l-0.4-0.9c1.2-0.6,2.4-1.2,3.6-1.7l0.4,0.9
			C89.1,264.7,87.9,265.3,86.7,265.9z M55.1,265.7c-0.8-1.1-1.6-2.2-2.3-3.3l0.8-0.6c0.7,1.1,1.5,2.2,2.3,3.3L55.1,265.7z
			 M151.7,262.8c-1.1-0.7-2.3-1.3-3.5-1.8l0.4-0.9c1.2,0.6,2.5,1.2,3.6,1.9L151.7,262.8z M94,262.6l-0.4-0.9c1.3-0.5,2.5-1,3.8-1.4
			l0.3,0.9C96.4,261.6,95.2,262.1,94,262.6z M101.5,259.9l-0.3-1c1.3-0.4,2.6-0.8,3.9-1.1l0.2,1C104,259.2,102.7,259.6,101.5,259.9z
			 M144.6,259.5c-1.2-0.4-2.5-0.8-3.8-1.2l0.3-1c1.3,0.3,2.6,0.7,3.9,1.2L144.6,259.5z M50.6,259c-0.7-1.2-1.4-2.3-2-3.5l0.9-0.5
			c0.6,1.2,1.3,2.3,2,3.5L50.6,259z M109.2,258l-0.2-1c1.3-0.3,2.7-0.5,4-0.7l0.2,1C111.8,257.5,110.5,257.7,109.2,258z
			 M136.9,257.5c-1.3-0.2-2.6-0.4-3.9-0.6l0.1-1c1.4,0.2,2.7,0.4,4,0.6L136.9,257.5z M117.1,256.8l-0.1-1c1.3-0.1,2.7-0.2,4-0.3l0,1
			C119.7,256.5,118.4,256.6,117.1,256.8z M129,256.5c-1.2-0.1-2.4-0.1-3.6-0.1l-0.4,0l0-1l0.4,0c1.2,0,2.4,0.1,3.6,0.1L129,256.5z
			 M46.8,251.9c-0.6-1.2-1.1-2.5-1.7-3.7l0.9-0.4c0.5,1.2,1.1,2.4,1.6,3.6L46.8,251.9z M43.7,244.4c-0.5-1.3-0.9-2.5-1.3-3.8l1-0.3
			c0.4,1.3,0.8,2.5,1.3,3.8L43.7,244.4z M41.3,236.7c-0.3-1.3-0.6-2.6-0.9-3.9l1-0.2c0.3,1.3,0.6,2.6,0.9,3.9L41.3,236.7z
			 M39.6,228.8c-0.2-1.3-0.4-2.7-0.5-4l1-0.1c0.1,1.3,0.3,2.6,0.5,3.9L39.6,228.8z M38.7,220.8c-0.1-1.3-0.1-2.7-0.2-4l1,0
			c0,1.3,0.1,2.7,0.2,4L38.7,220.8z M39.5,212.8l-1,0c0-1.3,0.1-2.7,0.2-4l1,0.1C39.6,210.1,39.6,211.5,39.5,212.8z M40.1,204.8
			l-1-0.1c0.1-1.3,0.3-2.7,0.5-4l1,0.2C40.4,202.2,40.2,203.5,40.1,204.8z M41.3,196.9l-1-0.2c0.2-1,0.4-2,0.6-3l0.2-1l1,0.2l-0.2,1
			C41.7,195,41.5,196,41.3,196.9z M43.1,189.1l-1-0.2c0.3-1.3,0.7-2.6,1-3.9l1,0.3C43.7,186.6,43.4,187.8,43.1,189.1z M45.2,181.4
			l-1-0.3c0.4-1.3,0.8-2.6,1.2-3.9l1,0.3C45.9,178.9,45.6,180.1,45.2,181.4z M47.6,173.8l-1-0.3c0.4-1.3,0.8-2.6,1.3-3.8l0.9,0.3
			C48.4,171.2,48,172.5,47.6,173.8z M50.2,166.2l-0.9-0.3c0.5-1.3,0.9-2.5,1.4-3.8l0.9,0.4C51.1,163.6,50.6,164.9,50.2,166.2z
			 M53,158.6l-0.9-0.4c0.5-1.2,1-2.5,1.5-3.7l0.9,0.4C54,156.2,53.5,157.4,53,158.6z M56,151.2l-0.9-0.4c0.5-1.2,1-2.5,1.6-3.7
			l0.9,0.4C57,148.8,56.5,150,56,151.2z M59.2,143.9l-0.9-0.4c0.5-1.2,1.1-2.4,1.7-3.7l0.9,0.4C60.3,141.4,59.7,142.7,59.2,143.9z
			 M62.5,136.6l-0.9-0.4c0.6-1.2,1.2-2.4,1.7-3.6l0.9,0.4C63.7,134.2,63.1,135.4,62.5,136.6z M66,129.4l-0.9-0.4
			c0.6-1.2,1.2-2.4,1.8-3.6l0.9,0.5C67.2,127,66.6,128.2,66,129.4z M69.7,122.2l-0.9-0.5c0.6-1.2,1.2-2.4,1.9-3.6l0.9,0.5
			C70.9,119.8,70.3,121,69.7,122.2z M73.4,115.1l-0.9-0.5c0.6-1.2,1.3-2.4,1.9-3.5l0.9,0.5C74.7,112.8,74,113.9,73.4,115.1z
			 M77.3,108.1l-0.9-0.5c0.7-1.2,1.3-2.3,2-3.5l0.9,0.5C78.6,105.8,77.9,106.9,77.3,108.1z M81.3,101.1l-0.9-0.5
			c0.7-1.2,1.4-2.3,2-3.5l0.9,0.5C82.6,98.8,81.9,100,81.3,101.1z M85.3,94.2l-0.9-0.5c0.7-1.2,1.4-2.3,2.1-3.4l0.9,0.5
			C86.7,91.9,86,93.1,85.3,94.2z M89.5,87.4l-0.8-0.5c0.7-1.2,1.4-2.3,2.1-3.4l0.8,0.5C91,85.1,90.3,86.2,89.5,87.4z M93.8,80.6
			L93,80.1c0.8-1.2,1.5-2.3,2.2-3.4l0.8,0.5C95.3,78.3,94.6,79.4,93.8,80.6z M98.2,73.9l-0.8-0.6c0.8-1.2,1.5-2.3,2.2-3.3l0.8,0.6
			C99.7,71.6,99,72.7,98.2,73.9z M102.7,67.2l-0.8-0.6c0.8-1.2,1.6-2.3,2.3-3.3l0.8,0.6C104.3,64.9,103.6,66,102.7,67.2z"/>
	</g>
	<g>
		<path class="st1" d="M43.7,480.2c0,0-0.5-0.5-1.3-1.6l0.8-0.6c0.8,1,1.2,1.5,1.2,1.5L43.7,480.2z"/>
	</g>
</g>
</svg>
