<?xml version="1.0" encoding="utf-8"?>
<!-- Generator: Adobe Illustrator 21.0.0, SVG Export Plug-In . SVG Version: 6.00 Build 0)  -->
<svg version="1.1" id="Слой_1" xmlns="http://www.w3.org/2000/svg" xmlns:xlink="http://www.w3.org/1999/xlink" x="0px" y="0px"
	 viewBox="0 0 119.3 504.9" style="enable-background:new 0 0 119.3 504.9;" xml:space="preserve">
<style type="text/css">
	.st0{fill:#559577;}
	.st1{fill:#72C79E;}
</style>
<polygon class="st0" points="37.3,25.9 22.6,51.4 37.3,46.9 52.1,51.4 "/>
<polygon class="st1" points="40.6,47.9 37.2,52.9 34.1,47.9 37.2,25.9 "/>
<polygon class="st0" points="55.6,125 42.6,147.6 55.6,143.6 68.7,147.6 "/>
<polygon class="st1" points="58.5,144.5 55.5,148.9 52.8,144.5 55.5,125 "/>
<polygon class="st0" points="88.4,99.3 73.1,125.8 88.4,121.1 103.7,125.8 "/>
<polygon class="st1" points="91.7,122.2 88.2,127.4 85,122.2 88.2,99.3 "/>
<g>
	<g>
		<rect x="36.7" y="52.9" class="st0" width="1" height="2"/>
	</g>
	<g>
		<path class="st0" d="M37.7,498.9h-1v-4h1V498.9z M37.7,491h-1v-4h1V491z M37.7,483.1h-1v-4h1V483.1z M37.7,475.1h-1v-4h1V475.1z
			 M37.7,467.2h-1v-4h1V467.2z M37.7,459.3h-1v-4h1V459.3z M37.7,451.4h-1v-4h1V451.4z M37.7,443.4h-1v-4h1V443.4z M37.7,435.5h-1
			v-4h1V435.5z M37.7,427.6h-1v-4h1V427.6z M37.7,419.6h-1v-4h1V419.6z M37.7,411.7h-1v-4h1V411.7z M37.7,403.8h-1v-4h1V403.8z
			 M37.7,395.9h-1v-4h1V395.9z M37.7,387.9h-1v-4h1V387.9z M37.7,380h-1v-4h1V380z M37.7,372.1h-1v-4h1V372.1z M37.7,364.1h-1v-4h1
			V364.1z M37.7,356.2h-1v-4h1V356.2z M37.7,348.3h-1v-4h1V348.3z M37.7,340.4h-1v-4h1V340.4z M37.7,332.4h-1v-4h1V332.4z
			 M37.7,324.5h-1v-4h1V324.5z M37.7,316.6h-1v-4h1V316.6z M37.7,308.6h-1v-4h1V308.6z M37.7,300.7h-1v-4h1V300.7z M37.7,292.8h-1
			v-4h1V292.8z M37.7,284.8h-1v-4h1V284.8z M37.7,276.9h-1v-4h1V276.9z M37.7,269h-1v-4h1V269z M37.7,261.1h-1v-4h1V261.1z
			 M37.7,253.1h-1v-4h1V253.1z M37.7,245.2h-1v-4h1V245.2z M37.7,237.3h-1v-4h1V237.3z M37.7,229.3h-1v-4h1V229.3z M37.7,221.4h-1
			v-4h1V221.4z M37.7,213.5h-1v-4h1V213.5z M37.7,205.6h-1v-4h1V205.6z M37.7,197.6h-1v-4h1V197.6z M37.7,189.7h-1v-4h1V189.7z
			 M37.7,181.8h-1v-4h1V181.8z M37.7,173.8h-1v-4h1V173.8z M37.7,165.9h-1v-4h1V165.9z M37.7,158h-1v-4h1V158z M37.7,150h-1v-4h1
			V150z M37.7,142.1h-1v-4h1V142.1z M37.7,134.2h-1v-4h1V134.2z M37.7,126.3h-1v-4h1V126.3z M37.7,118.3h-1v-4h1V118.3z M37.7,110.4
			h-1v-4h1V110.4z M37.7,102.5h-1v-4h1V102.5z M37.7,94.5h-1v-4h1V94.5z M37.7,86.6h-1v-4h1V86.6z M37.7,78.7h-1v-4h1V78.7z
			 M37.7,70.8h-1v-4h1V70.8z M37.7,62.8h-1v-4h1V62.8z"/>
	</g>
	<g>
		<rect x="36.7" y="502.9" class="st0" width="1" height="2"/>
	</g>
</g>
<g>
	<g>
		<rect x="55" y="148.9" class="st0" width="1" height="2"/>
	</g>
	<g>
		<path class="st0" d="M56,498.9h-1v-4h1V498.9z M56,491h-1v-4h1V491z M56,483.1h-1v-4h1V483.1z M56,475.2h-1v-4h1V475.2z M56,467.3
			h-1v-4h1V467.3z M56,459.4h-1v-4h1V459.4z M56,451.5h-1v-4h1V451.5z M56,443.6h-1v-4h1V443.6z M56,435.7h-1v-4h1V435.7z M56,427.8
			h-1v-4h1V427.8z M56,419.8h-1v-4h1V419.8z M56,411.9h-1v-4h1V411.9z M56,404h-1v-4h1V404z M56,396.1h-1v-4h1V396.1z M56,388.2h-1
			v-4h1V388.2z M56,380.3h-1v-4h1V380.3z M56,372.4h-1v-4h1V372.4z M56,364.5h-1v-4h1V364.5z M56,356.6h-1v-4h1V356.6z M56,348.7h-1
			v-4h1V348.7z M56,340.7h-1v-4h1V340.7z M56,332.8h-1v-4h1V332.8z M56,324.9h-1v-4h1V324.9z M56,317h-1v-4h1V317z M56,309.1h-1v-4
			h1V309.1z M56,301.2h-1v-4h1V301.2z M56,293.3h-1v-4h1V293.3z M56,285.4h-1v-4h1V285.4z M56,277.5h-1v-4h1V277.5z M56,269.6h-1v-4
			h1V269.6z M56,261.6h-1v-4h1V261.6z M56,253.7h-1v-4h1V253.7z M56,245.8h-1v-4h1V245.8z M56,237.9h-1v-4h1V237.9z M56,230h-1v-4h1
			V230z M56,222.1h-1v-4h1V222.1z M56,214.2h-1v-4h1V214.2z M56,206.3h-1v-4h1V206.3z M56,198.4h-1v-4h1V198.4z M56,190.4h-1v-4h1
			V190.4z M56,182.5h-1v-4h1V182.5z M56,174.6h-1v-4h1V174.6z M56,166.7h-1v-4h1V166.7z M56,158.8h-1v-4h1V158.8z"/>
	</g>
	<g>
		<rect x="55" y="502.9" class="st0" width="1" height="2"/>
	</g>
</g>
<g>
	<g>
		<rect x="87.7" y="127.4" class="st0" width="1" height="2"/>
	</g>
	<g>
		<path class="st0" d="M88.7,498.9h-1v-4h1V498.9z M88.7,490.8h-1v-4h1V490.8z M88.7,482.8h-1v-4h1V482.8z M88.7,474.8h-1v-4h1
			V474.8z M88.7,466.8h-1v-4h1V466.8z M88.7,458.7h-1v-4h1V458.7z M88.7,450.7h-1v-4h1V450.7z M88.7,442.7h-1v-4h1V442.7z
			 M88.7,434.6h-1v-4h1V434.6z M88.7,426.6h-1v-4h1V426.6z M88.7,418.6h-1v-4h1V418.6z M88.7,410.5h-1v-4h1V410.5z M88.7,402.5h-1
			v-4h1V402.5z M88.7,394.5h-1v-4h1V394.5z M88.7,386.4h-1v-4h1V386.4z M88.7,378.4h-1v-4h1V378.4z M88.7,370.4h-1v-4h1V370.4z
			 M88.7,362.3h-1v-4h1V362.3z M88.7,354.3h-1v-4h1V354.3z M88.7,346.3h-1v-4h1V346.3z M88.7,338.2h-1v-4h1V338.2z M88.7,330.2h-1
			v-4h1V330.2z M88.7,322.2h-1v-4h1V322.2z M88.7,314.1h-1v-4h1V314.1z M88.7,306.1h-1v-4h1V306.1z M88.7,298.1h-1v-4h1V298.1z
			 M88.7,290h-1v-4h1V290z M88.7,282h-1v-4h1V282z M88.7,274h-1v-4h1V274z M88.7,265.9h-1v-4h1V265.9z M88.7,257.9h-1v-4h1V257.9z
			 M88.7,249.9h-1v-4h1V249.9z M88.7,241.8h-1v-4h1V241.8z M88.7,233.8h-1v-4h1V233.8z M88.7,225.8h-1v-4h1V225.8z M88.7,217.7h-1
			v-4h1V217.7z M88.7,209.7h-1v-4h1V209.7z M88.7,201.7h-1v-4h1V201.7z M88.7,193.6h-1v-4h1V193.6z M88.7,185.6h-1v-4h1V185.6z
			 M88.7,177.6h-1v-4h1V177.6z M88.7,169.5h-1v-4h1V169.5z M88.7,161.5h-1v-4h1V161.5z M88.7,153.5h-1v-4h1V153.5z M88.7,145.4h-1
			v-4h1V145.4z M88.7,137.4h-1v-4h1V137.4z"/>
	</g>
	<g>
		<rect x="87.7" y="502.9" class="st0" width="1" height="2"/>
	</g>
</g>
</svg>
