<?xml version="1.0" encoding="utf-8"?>
<!-- Generator: Adobe Illustrator 21.0.0, SVG Export Plug-In . SVG Version: 6.00 Build 0)  -->
<svg version="1.1" id="Слой_1" xmlns="http://www.w3.org/2000/svg" xmlns:xlink="http://www.w3.org/1999/xlink" x="0px" y="0px"
	 viewBox="0 0 98 96" style="enable-background:new 0 0 98 96;" xml:space="preserve">
<style type="text/css">
	.st0{fill:#323E41;}
	.st1{clip-path:url(#SVGID_2_);}
	.st2{fill:url(#SVGID_3_);}
	.st3{fill:url(#SVGID_4_);}
	.st4{fill:url(#SVGID_5_);}
	.st5{fill:#4DEBC7;}
</style>
<g>
	<path class="st0" d="M0.8,84.2H5c1,0,1.8,0.2,2.3,0.7c0.5,0.5,0.8,1.2,0.8,2.1c0,0.6-0.1,1-0.3,1.4c-0.2,0.4-0.5,0.7-0.9,0.9
		c0.4,0.1,0.8,0.2,1,0.4c0.3,0.2,0.5,0.4,0.7,0.6c0.2,0.2,0.3,0.5,0.4,0.8c0.1,0.3,0.1,0.6,0.1,0.9c0,0.5-0.1,1-0.3,1.4
		c-0.2,0.4-0.4,0.7-0.8,1c-0.3,0.3-0.7,0.5-1.2,0.6c-0.5,0.1-1,0.2-1.6,0.2H0.8V84.2z M3.6,88.5h0.5c0.9,0,1.3-0.4,1.3-1.1
		c0-0.7-0.4-1.1-1.3-1.1H3.6V88.5z M3.6,92.9h0.6c0.7,0,1.2-0.1,1.5-0.3c0.3-0.2,0.5-0.5,0.5-0.9s-0.2-0.7-0.5-0.9
		c-0.3-0.2-0.8-0.3-1.5-0.3H3.6V92.9z"/>
	<path class="st0" d="M28,95.2h-3.5l-2.7-4.2v4.2h-2.8V84.2h4.4c0.6,0,1.1,0.1,1.6,0.3c0.5,0.2,0.8,0.4,1.1,0.7
		c0.3,0.3,0.5,0.7,0.7,1.1c0.1,0.4,0.2,0.8,0.2,1.3c0,0.8-0.2,1.5-0.6,2s-1,0.9-1.8,1.1L28,95.2z M21.7,89.1h0.5
		c0.6,0,1-0.1,1.3-0.3c0.3-0.2,0.4-0.6,0.4-1c0-0.4-0.2-0.8-0.4-1c-0.3-0.2-0.7-0.3-1.3-0.3h-0.5V89.1z"/>
	<path class="st0" d="M40,84.2v10.9h-2.8V84.2H40z"/>
	<path class="st0" d="M50.4,84.2h4.2c0.7,0,1.4,0.2,2.1,0.4c0.7,0.3,1.2,0.7,1.7,1.2c0.5,0.5,0.9,1.1,1.2,1.7
		c0.3,0.7,0.4,1.4,0.4,2.1c0,0.7-0.1,1.4-0.4,2.1c-0.3,0.7-0.7,1.2-1.1,1.7c-0.5,0.5-1.1,0.9-1.7,1.2c-0.7,0.3-1.4,0.4-2.1,0.4h-4.2
		V84.2z M53.2,92.7h0.7c0.5,0,0.9-0.1,1.3-0.2c0.4-0.2,0.7-0.4,1-0.6c0.3-0.3,0.5-0.6,0.6-1c0.1-0.4,0.2-0.8,0.2-1.2
		c0-0.4-0.1-0.8-0.2-1.2c-0.1-0.4-0.4-0.7-0.6-1c-0.3-0.3-0.6-0.5-1-0.6c-0.4-0.2-0.8-0.2-1.3-0.2h-0.7V92.7z"/>
	<path class="st0" d="M75.2,89h5.6c0,0.6,0,1.1-0.1,1.6c0,0.5-0.1,0.9-0.3,1.3c-0.2,0.6-0.5,1.1-0.8,1.5c-0.3,0.4-0.8,0.8-1.2,1.1
		c-0.5,0.3-1,0.5-1.5,0.7c-0.6,0.2-1.2,0.2-1.8,0.2c-0.9,0-1.6-0.1-2.3-0.4c-0.7-0.3-1.3-0.7-1.8-1.2c-0.5-0.5-0.9-1.1-1.2-1.8
		c-0.3-0.7-0.4-1.5-0.4-2.4c0-0.9,0.1-1.6,0.4-2.3c0.3-0.7,0.7-1.3,1.2-1.8c0.5-0.5,1.1-0.9,1.8-1.2c0.7-0.3,1.5-0.4,2.4-0.4
		c1.1,0,2.1,0.2,3,0.7c0.9,0.5,1.5,1.3,2,2.3l-2.7,1.1c-0.3-0.6-0.6-1-1-1.3c-0.4-0.3-0.9-0.4-1.4-0.4c-0.4,0-0.8,0.1-1.2,0.2
		c-0.3,0.2-0.6,0.4-0.9,0.7c-0.2,0.3-0.4,0.7-0.6,1.1c-0.1,0.4-0.2,0.9-0.2,1.4c0,0.5,0.1,0.9,0.2,1.3c0.1,0.4,0.3,0.7,0.5,1
		c0.2,0.3,0.5,0.5,0.9,0.7c0.4,0.2,0.8,0.2,1.2,0.2c0.3,0,0.6,0,0.8-0.1c0.3-0.1,0.5-0.2,0.7-0.3c0.2-0.1,0.4-0.3,0.5-0.5
		s0.2-0.5,0.3-0.8h-2.3V89z"/>
	<path class="st0" d="M96.9,86.6h-3.4v1.8h3.2v2.4h-3.2v1.9h3.4v2.4h-6.2V84.2h6.2V86.6z"/>
</g>
<g>
	<defs>
		<circle id="SVGID_1_" cx="49" cy="24" r="24"/>
	</defs>
	<clipPath id="SVGID_2_">
		<use xlink:href="#SVGID_1_"  style="overflow:visible;"/>
	</clipPath>
	<g class="st1">
		<radialGradient id="SVGID_3_" cx="40" cy="23.6667" r="35.0016" gradientUnits="userSpaceOnUse">
			<stop  offset="8.903952e-04" style="stop-color:#3E716B"/>
			<stop  offset="1" style="stop-color:#313B3D"/>
		</radialGradient>
		<path class="st2" d="M67,48H31c-3.3,0-6-2.7-6-6V6c0-3.3,2.7-6,6-6h36c3.3,0,6,2.7,6,6v36C73,45.3,70.3,48,67,48z"/>
		<radialGradient id="SVGID_4_" cx="63.125" cy="23.375" r="28.3136" gradientUnits="userSpaceOnUse">
			<stop  offset="0" style="stop-color:#64D3AD"/>
			<stop  offset="1" style="stop-color:#313B3D"/>
		</radialGradient>
		<path class="st3" d="M53.7,23.3c0.8-1.2,1.3-2.7,1.3-4.3c0-4.4-3.6-8-8-8H30v5h15.5c1.4,0,2.5,1.1,2.5,2.5S46.9,21,45.5,21H30v6
			h17.5c1.4,0,2.5,1.1,2.5,2.5S48.9,32,47.5,32H30v5h19.5c4.1,0,7.5-3.4,7.5-7.5C57,26.9,55.7,24.7,53.7,23.3z"/>
		<radialGradient id="SVGID_5_" cx="58.75" cy="22.5" r="43.875" gradientUnits="userSpaceOnUse">
			<stop  offset="0" style="stop-color:#63D2AC"/>
			<stop  offset="1" style="stop-color:#63D2AC"/>
		</radialGradient>
		<path class="st4" d="M56.7,23.3c0.8-1.2,1.3-2.7,1.3-4.3c0-4.4-3.6-8-8-8H25v5h23.5c1.4,0,2.5,1.1,2.5,2.5S49.9,21,48.5,21H25v6
			h25.5c1.4,0,2.5,1.1,2.5,2.5S51.9,32,50.5,32H25v5h27.5c4.1,0,7.5-3.4,7.5-7.5C60,26.9,58.7,24.7,56.7,23.3z"/>
		<g>
			<path class="st5" d="M58,19.4c0-0.1,0-0.3,0-0.4c0-4.4-3.6-8-8-8H25v1h25C54.2,12,57.7,15.3,58,19.4z"/>
			<path class="st5" d="M56.7,24.3c1.9,1.3,3.1,3.4,3.2,5.7c0-0.2,0-0.4,0-0.6c0-2.4-1.1-4.5-2.9-5.9C57,23.8,56.9,24.1,56.7,24.3z"
				/>
			<path class="st5" d="M51,19.5c0-0.2,0-0.3-0.1-0.5c-0.2,1.1-1.2,2-2.4,2H25v1h23.5C49.9,22,51,20.9,51,19.5z"/>
			<path class="st5" d="M53,30.5c0-0.2,0-0.3-0.1-0.5c-0.2,1.1-1.2,2-2.4,2H25v1h25.5C51.9,33,53,31.9,53,30.5z"/>
		</g>
	</g>
</g>
</svg>
