<?xml version="1.0" encoding="utf-8"?>
<!-- Generator: Adobe Illustrator 21.0.0, SVG Export Plug-In . SVG Version: 6.00 Build 0)  -->
<svg version="1.1" id="Слой_1" xmlns="http://www.w3.org/2000/svg" xmlns:xlink="http://www.w3.org/1999/xlink" x="0px" y="0px"
	 viewBox="0 0 20 20" style="enable-background:new 0 0 20 20;" xml:space="preserve">
<style type="text/css">
	.st0{fill:none;}
	.st1{fill:#253738;}
</style>
<rect class="st0" width="20" height="20"/>
<path class="st1" d="M9,5v1v2v4.6L5.2,8.8c-0.4-0.4-1-0.4-1.4,0s-0.4,1,0,1.4l5.5,5.5l0,0c0.4,0.4,1,0.4,1.4,0l0,0l5.5-5.5
	c0.4-0.4,0.4-1,0-1.4s-1-0.4-1.4,0L11,12.6V8V6V5c0-0.5-0.5-1-1-1S9,4.5,9,5z"/>
</svg>
