<?xml version="1.0" encoding="utf-8"?>
<!-- Generator: Adobe Illustrator 21.0.0, SVG Export Plug-In . SVG Version: 6.00 Build 0)  -->
<svg version="1.1" id="Слой_1" xmlns="http://www.w3.org/2000/svg" xmlns:xlink="http://www.w3.org/1999/xlink" x="0px" y="0px"
	 viewBox="0 0 20 20" style="enable-background:new 0 0 20 20;" xml:space="preserve">
<style type="text/css">
	.st0{fill:none;}
	.st1{fill:#35E7BC;}
</style>
<rect x="0" class="st0" width="20" height="20"/>
<path class="st1" d="M15,9h-1h-2H7.4l3.8-3.8c0.4-0.4,0.4-1,0-1.4s-1-0.4-1.4,0L4.3,9.3l0,0c-0.4,0.4-0.4,1,0,1.4l0,0l5.5,5.5
	c0.4,0.4,1,0.4,1.4,0s0.4-1,0-1.4L7.4,11H12h2h1c0.5,0,1-0.5,1-1S15.5,9,15,9z"/>
</svg>
