<?xml version="1.0" encoding="utf-8"?>
<!-- Generator: Adobe Illustrator 21.0.0, SVG Export Plug-In . SVG Version: 6.00 Build 0)  -->
<svg version="1.1" id="Слой_1" xmlns="http://www.w3.org/2000/svg" xmlns:xlink="http://www.w3.org/1999/xlink" x="0px" y="0px"
	 viewBox="0 0 20 20" style="enable-background:new 0 0 20 20;" xml:space="preserve">
<style type="text/css">
	.st0{fill:none;}
	.st1{fill:#535D65;}
</style>
<rect x="0" class="st0" width="20" height="20"/>
<path class="st1" d="M9,9H7c-1.1,0-2,0.9-2,2v2c0,1.1,0.9,2,2,2h2c1.1,0,2-0.9,2-2v-2C11,9.9,10.1,9,9,9z M10,13c0,0.6-0.4,1-1,1H7
	c-0.6,0-1-0.4-1-1v-2c0-0.6,0.4-1,1-1h2c0.6,0,1,0.4,1,1V13z M12,6h-2C8.9,6,8,6.9,8,8h1c0-0.6,0.4-1,1-1h2c0.6,0,1,0.4,1,1v2
	c0,0.6-0.4,1-1,1v1c1.1,0,2-0.9,2-2V8C14,6.9,13.1,6,12,6z"/>
</svg>
