<?xml version="1.0" encoding="utf-8"?>
<!-- Generator: Adobe Illustrator 21.0.0, SVG Export Plug-In . SVG Version: 6.00 Build 0)  -->
<svg version="1.1" id="Слой_1" xmlns="http://www.w3.org/2000/svg" xmlns:xlink="http://www.w3.org/1999/xlink" x="0px" y="0px"
	 viewBox="0 0 20 20" style="enable-background:new 0 0 20 20;" xml:space="preserve">
<style type="text/css">
	.st0{fill:none;}
</style>
<rect x="0" class="st0" width="20" height="20"/>
<path d="M11.7,9.9L16,5.6c0.4-0.4,0.4-1,0-1.4s-1-0.4-1.4,0l-4.3,4.3L6,4.2c-0.4-0.4-1-0.4-1.4,0s-0.4,1,0,1.4l4.3,4.3l-4.3,4.3
	c-0.4,0.4-0.4,1,0,1.4C5,16,5.6,16,6,15.6l4.3-4.3l4.3,4.3c0.4,0.4,1,0.4,1.4,0s0.4-1,0-1.4L11.7,9.9z"/>
</svg>
