<?xml version="1.0" encoding="utf-8"?>
<!-- Generator: Adobe Illustrator 21.0.0, SVG Export Plug-In . SVG Version: 6.00 Build 0)  -->
<svg version="1.1" id="Слой_1" xmlns="http://www.w3.org/2000/svg" xmlns:xlink="http://www.w3.org/1999/xlink" x="0px" y="0px"
	 viewBox="0 0 20 20" style="enable-background:new 0 0 20 20;" xml:space="preserve">
<style type="text/css">
	.st0{fill:none;}
	.st1{fill:#adb3b9;}
</style>
<rect x="0" class="st0" width="20" height="20"/>
<path class="st1" d="M10.5,9.9l2.8-2.8c0.2-0.2,0.2-0.5,0-0.7s-0.5-0.2-0.7,0L9.8,9.2L7,6.4c-0.2-0.2-0.5-0.2-0.7,0s-0.2,0.5,0,0.7l2.8,2.8
	l-2.8,2.8c-0.2,0.2-0.2,0.5,0,0.7s0.5,0.2,0.7,0l2.8-2.8l2.8,2.8c0.2,0.2,0.5,0.2,0.7,0s0.2-0.5,0-0.7L10.5,9.9z"/>
</svg>
