<?xml version="1.0" encoding="utf-8"?>
<!-- Generator: Adobe Illustrator 21.0.0, SVG Export Plug-In . SVG Version: 6.00 Build 0)  -->
<svg version="1.1" id="Слой_1" xmlns="http://www.w3.org/2000/svg" xmlns:xlink="http://www.w3.org/1999/xlink" x="0px" y="0px"
	 viewBox="0 0 20 20" style="enable-background:new 0 0 20 20;" xml:space="preserve">
<style type="text/css">
	.st0{fill:none;}
	.st1{fill:#E4E6E7;}
</style>
<rect x="0" class="st0" width="20" height="20"/>
<g>
	<path class="st1" d="M14,9.7L14,9.7c0-0.1,0-0.1,0-0.2s0-0.1,0-0.2l0,0c0-0.1-0.1-0.1-0.1-0.2l0,0l-2.4-2.4c-0.2-0.2-0.5-0.2-0.7,0
		s-0.2,0.5,0,0.7L12.3,9H8.5C8.2,9,8,9.2,8,9.5S8.2,10,8.5,10h3.8l-1.6,1.6c-0.2,0.2-0.2,0.5,0,0.7s0.5,0.2,0.7,0l2.4-2.4l0,0
		C13.9,9.8,13.9,9.8,14,9.7z"/>
	<path class="st1" d="M8.5,14H5V5h3.5C8.8,5,9,4.8,9,4.5S8.8,4,8.5,4h-4C4.2,4,4,4.2,4,4.5v10C4,14.8,4.2,15,4.5,15h4
		C8.8,15,9,14.8,9,14.5S8.8,14,8.5,14z"/>
</g>
</svg>
