<?xml version="1.0" encoding="utf-8"?>
<!-- Generator: Adobe Illustrator 21.0.0, SVG Export Plug-In . SVG Version: 6.00 Build 0)  -->
<svg version="1.1" id="Слой_1" xmlns="http://www.w3.org/2000/svg" xmlns:xlink="http://www.w3.org/1999/xlink" x="0px" y="0px"
	 viewBox="0 0 20 20" style="enable-background:new 0 0 20 20;" xml:space="preserve">
<style type="text/css">
	.st0{fill:none;}
	.st1{fill:#D1EDEE;}
</style>
<rect x="0" class="st0" width="20" height="20"/>
<g>
	<g>
		<path class="st1" d="M16.5,4h-13C3.2,4,3,4.2,3,4.5v1C3,5.8,3.2,6,3.5,6h13C16.8,6,17,5.8,17,5.5v-1C17,4.2,16.8,4,16.5,4z
			 M16.5,9h-13C3.2,9,3,9.2,3,9.5v1C3,10.8,3.2,11,3.5,11h13c0.3,0,0.5-0.2,0.5-0.5v-1C17,9.2,16.8,9,16.5,9z M16.5,14h-13
			C3.2,14,3,14.2,3,14.5v1C3,15.8,3.2,16,3.5,16h13c0.3,0,0.5-0.2,0.5-0.5v-1C17,14.2,16.8,14,16.5,14z"/>
	</g>
</g>
</svg>
