<?xml version="1.0" encoding="utf-8"?>
<!-- Generator: Adobe Illustrator 21.0.0, SVG Export Plug-In . SVG Version: 6.00 Build 0)  -->
<svg version="1.1" id="Слой_1" xmlns="http://www.w3.org/2000/svg" xmlns:xlink="http://www.w3.org/1999/xlink" x="0px" y="0px"
	 viewBox="0 0 20 20" style="enable-background:new 0 0 20 20;" xml:space="preserve">
<style type="text/css">
	.st0{fill:none;}
	.st1{fill:#d4dede;}
</style>
<rect x="0" class="st0" width="20" height="20"/>
<path class="st1" d="M17,6V4c0-1.1-0.9-2-2-2H3C1.9,2,1,2.9,1,4v13c0,1.1,0.9,2,2,2h14c1.1,0,2-0.9,2-2V8C19,6.9,18.1,6,17,6z M3,4
	c0-0.6,0.4-1,1-1h11c0.6,0,1,0.4,1,1s0,2,0,2H3V4z M17,16c0,0.6-0.4,1-1,1H4c-0.6,0-1-0.4-1-1V7c0,0.7,0.4,1,1,1h12c0.6,0,1,0.4,1,1
	V16z M14,11c-0.6,0-1,0.4-1,1s0.4,1,1,1s1-0.4,1-1S14.6,11,14,11z"/>
</svg>
