<?xml version="1.0" encoding="utf-8"?>
<!-- Generator: Adobe Illustrator 21.0.0, SVG Export Plug-In . SVG Version: 6.00 Build 0)  -->
<svg version="1.1" id="Слой_1" xmlns="http://www.w3.org/2000/svg" xmlns:xlink="http://www.w3.org/1999/xlink" x="0px" y="0px"
	 viewBox="0 0 20 20" style="enable-background:new 0 0 20 20;" xml:space="preserve">
<style type="text/css">
	.st0{fill:none;}
</style>
<rect x="0" class="st0" width="20" height="20"/>
<path d="M17.8,13.3c-0.6,0-1,0.4-1,1v1c0,1.1-0.9,2-2,2h-9c-1.1,0-2-0.9-2-2v-1c0-0.6-0.4-1-1-1s-1,0.4-1,1v1c0,2.2,1.8,4,4,4h9
	c2.2,0,4-1.8,4-4v-1C18.8,13.7,18.3,13.3,17.8,13.3z M9.9,14.1c0.1,0.1,0.2,0.2,0.4,0.2c0.1,0,0.3,0,0.4-0.2l4-3.9
	c0.2-0.2,0.2-0.5,0-0.7s-0.5-0.2-0.7,0l-3.1,3.1V1.8c0-0.3-0.2-0.5-0.5-0.5l0,0c-0.3,0-0.5,0.2-0.5,0.5v10.7l-3.2-3
	C6.5,9.2,6.2,9.2,6,9.5C5.8,9.7,5.8,10,6,10.2L9.9,14.1z"/>
</svg>
