<?xml version="1.0" encoding="utf-8"?>
<!-- Generator: Adobe Illustrator 21.0.0, SVG Export Plug-In . SVG Version: 6.00 Build 0)  -->
<svg version="1.1" id="Слой_1" xmlns="http://www.w3.org/2000/svg" xmlns:xlink="http://www.w3.org/1999/xlink" x="0px" y="0px"
	 viewBox="0 0 20 20" style="enable-background:new 0 0 20 20;" xml:space="preserve">
<style type="text/css">
	.st0{fill:none;}
	.st1{fill:#d4dede;}
</style>
<rect x="0" class="st0" width="20" height="20"/>
<g>
	<g>
		<path class="st1" d="M9.5,8.8C9.2,8.8,9,9,9,9.3v4c0,0.3,0.2,0.5,0.5,0.5s0.5-0.2,0.5-0.5v-4C10,9,9.8,8.8,9.5,8.8z M9.5,1.8
			C4.8,1.8,1,5.6,1,10.3s3.8,8.5,8.5,8.5S18,15,18,10.3S14.2,1.8,9.5,1.8z M9.5,16.8c-3.6,0-6.5-2.9-6.5-6.5s2.9-6.5,6.5-6.5
			S16,6.7,16,10.3S13.1,16.8,9.5,16.8z M9.5,6.8C9.2,6.8,9,7,9,7.3s0.2,0.5,0.5,0.5S10,7.6,10,7.3S9.8,6.8,9.5,6.8z"/>
	</g>
</g>
</svg>
