<?xml version="1.0" encoding="utf-8"?>
<!-- Generator: Adobe Illustrator 21.0.0, SVG Export Plug-In . SVG Version: 6.00 Build 0)  -->
<svg version="1.1" id="Слой_1" xmlns="http://www.w3.org/2000/svg" xmlns:xlink="http://www.w3.org/1999/xlink" x="0px" y="0px"
	 viewBox="0 0 20 20" style="enable-background:new 0 0 20 20;" xml:space="preserve">
<style type="text/css">
	.st0{fill:none;}
	.st1{fill:#d4dede;}
</style>
<rect x="0" class="st0" width="20" height="20"/>
<path class="st1" d="M12.3,6.3h-5C7,6.3,6.8,6.5,6.8,6.8S7,7.3,7.3,7.3h5c0.3,0,0.5-0.2,0.5-0.5S12.6,6.3,12.3,6.3z M12.3,9.3h-5
	C7,9.3,6.8,9.5,6.8,9.8s0.2,0.5,0.5,0.5h5c0.3,0,0.5-0.2,0.5-0.5S12.6,9.3,12.3,9.3z M13.8,0.3h-8c-2.2,0-4,1.8-4,4v11
	c0,2.2,1.8,4,4,4h8c2.2,0,4-1.8,4-4v-11C17.8,2.1,16,0.3,13.8,0.3z M15.8,15.3c0,1.1-0.9,2-2,2h-8c-1.1,0-2-0.9-2-2v-11
	c0-1.1,0.9-2,2-2h8c1.1,0,2,0.9,2,2V15.3z M12.3,12.3h-5c-0.3,0-0.5,0.2-0.5,0.5s0.2,0.5,0.5,0.5h5c0.3,0,0.5-0.2,0.5-0.5
	S12.6,12.3,12.3,12.3z"/>
</svg>
