<?xml version="1.0" encoding="utf-8"?>
<!-- Generator: Adobe Illustrator 21.0.0, SVG Export Plug-In . SVG Version: 6.00 Build 0)  -->
<svg version="1.1" id="Слой_1" xmlns="http://www.w3.org/2000/svg" xmlns:xlink="http://www.w3.org/1999/xlink" x="0px" y="0px"
	 viewBox="0 0 20 20" style="enable-background:new 0 0 20 20;" xml:space="preserve">
<style type="text/css">
	.st0{fill:none;}
	.st1{fill-rule:evenodd;clip-rule:evenodd;fill:#80878C;}
</style>
<rect class="st0" width="20" height="20"/>
<g>
	<g>
		<path class="st1" d="M9.5,7C9.2,7,9,7.2,9,7.5S9.2,8,9.5,8C9.8,8,10,7.8,10,7.5S9.8,7,9.5,7z M9.5,5C7,5,5,7,5,9.5
			C5,12,7,14,9.5,14C12,14,14,12,14,9.5C14,7,12,5,9.5,5z M9.5,13C7.6,13,6,11.4,6,9.5S7.6,6,9.5,6C11.4,6,13,7.6,13,9.5
			S11.4,13,9.5,13z M9.5,9C9.2,9,9,9.2,9,9.5v2C9,11.8,9.2,12,9.5,12c0.3,0,0.5-0.2,0.5-0.5v-2C10,9.2,9.8,9,9.5,9z"/>
	</g>
</g>
</svg>
