<?xml version="1.0" encoding="utf-8"?>
<!-- Generator: Adobe Illustrator 21.0.0, SVG Export Plug-In . SVG Version: 6.00 Build 0)  -->
<svg version="1.1" id="Слой_1" xmlns="http://www.w3.org/2000/svg" xmlns:xlink="http://www.w3.org/1999/xlink" x="0px" y="0px"
	 viewBox="0 0 20 20" style="enable-background:new 0 0 20 20;" xml:space="preserve">
<style type="text/css">
	.st0{fill:none;}
	.st1{fill:#69737A;}
</style>
<rect x="0" class="st0" width="20" height="20"/>
<path class="st1" d="M14,4H6C4.9,4,4,4.9,4,6v9c0,1.1,0.9,2,2,2h6c1.1,0,2-0.9,2-2v-3h0.5c0.8,0,1.5-0.7,1.5-1.5V7C16,5,16,4,14,4z
	 M13,7v8c0,0.6-0.4,1-1,1H6c-0.6,0-1-0.4-1-1V6c0-0.6,0.4-1,1-1h8C14,5,13,5,13,7z M7.5,11h3c0.3,0,0.5-0.2,0.5-0.5S10.8,10,10.5,10
	h-3C7.2,10,7,10.2,7,10.5S7.2,11,7.5,11z M7.5,9h3C10.8,9,11,8.8,11,8.5S10.8,8,10.5,8h-3C7.2,8,7,8.2,7,8.5S7.2,9,7.5,9z M7.5,13h3
	c0.3,0,0.5-0.2,0.5-0.5S10.8,12,10.5,12h-3C7.2,12,7,12.2,7,12.5S7.2,13,7.5,13z"/>
</svg>
