<?xml version="1.0" encoding="utf-8"?>
<!-- Generator: Adobe Illustrator 21.0.0, SVG Export Plug-In . SVG Version: 6.00 Build 0)  -->
<svg version="1.1" id="Слой_1" xmlns="http://www.w3.org/2000/svg" xmlns:xlink="http://www.w3.org/1999/xlink" x="0px" y="0px"
	 viewBox="0 0 20 20" style="enable-background:new 0 0 20 20;" xml:space="preserve">
<style type="text/css">
	.st0{fill:none;}
	.st1{fill:#69737A;}
</style>
<rect x="0" class="st0" width="20" height="20"/>
<g>
	<path class="st1" d="M9.5,3C5.9,3,3,6.1,3,10s2.9,7,6.5,7s6.5-3.1,6.5-7S13.1,3,9.5,3z M13.2,14c-0.6-0.4-1.6-1-2.8-1
		c-0.7,0-1.1,0-1.8,0c-1.2,0-2.2,0.6-2.7,1C4.7,13,4,11.4,4,9.8C4,6.6,6.5,4,9.5,4S15,6.6,15,9.8C15,11.4,14.3,13,13.2,14z"/>
	<path class="st1" d="M9.5,6C10.9,6,12,7.1,12,8.5v1c0,1.4-1.1,2.5-2.5,2.5S7,10.9,7,9.5v-1C7,7.1,8.1,6,9.5,6z"/>
</g>
</svg>
