<?xml version="1.0" encoding="utf-8"?>
<!-- Generator: Adobe Illustrator 21.0.0, SVG Export Plug-In . SVG Version: 6.00 Build 0)  -->
<svg version="1.1" id="Слой_1" xmlns="http://www.w3.org/2000/svg" xmlns:xlink="http://www.w3.org/1999/xlink" x="0px" y="0px"
	 viewBox="0 0 20 20" style="enable-background:new 0 0 20 20;" xml:space="preserve">
<style type="text/css">
	.st0{fill:none;}
	.st1{fill:#69737A;}
</style>
<rect x="0" class="st0" width="20" height="20"/>
<path class="st1" d="M9.1,11.8C9.1,11.8,9.2,11.8,9.1,11.8L9.1,11.8c0.3,0.3,0.7,0.4,1,0.1l2.7-3c0.2-0.2,0.2-0.5,0-0.7
	s-0.5-0.2-0.7,0L11,9.3V6c0-0.5,0-2,0-2S9.6,4,9,4H8v5.3L6.8,8.1c-0.2-0.2-0.5-0.2-0.7,0C6,8.3,6,8.6,6.1,8.8L9.1,11.8z M4,13v2
	c0,1.1,1,2,3,2h5c2,0,3-0.9,3-2v-2H4z M14,15c0,0.6-1,1-2,1H7c-1,0-2-0.4-2-1v-1h9V15z"/>
</svg>
