<?xml version="1.0" encoding="utf-8"?>
<!-- Generator: Adobe Illustrator 21.0.0, SVG Export Plug-In . SVG Version: 6.00 Build 0)  -->
<svg version="1.1" id="Слой_1" xmlns="http://www.w3.org/2000/svg" xmlns:xlink="http://www.w3.org/1999/xlink" x="0px" y="0px"
	 viewBox="0 0 20 20" style="enable-background:new 0 0 20 20;" xml:space="preserve">
<style type="text/css">
	.st0{fill:none;}
	.st1{fill:#69737A;}
</style>
<rect x="0" class="st0" width="20" height="20"/>
<path class="st1" d="M3,7v7c0,1.1,0.9,2,2,2h2V5H5C3.9,5,3,5.9,3,7z M6,15H5c-0.6,0-1-0.4-1-1V7c0-0.6,0.5-1,1-1h1V15z M16.8,10
	l-2.9-2.9c-0.2-0.2-0.5-0.2-0.7,0s-0.2,0.5,0,0.7L14.4,9H9v3h5.3l-1.2,1.2c-0.2,0.2-0.2,0.5,0,0.7s0.5,0.2,0.7,0l3-3
	C17.1,10.6,16.9,10.2,16.8,10z"/>
</svg>
