<?xml version="1.0" encoding="utf-8"?>
<!-- Generator: Adobe Illustrator 21.0.0, SVG Export Plug-In . SVG Version: 6.00 Build 0)  -->
<svg version="1.1" id="Слой_1" xmlns="http://www.w3.org/2000/svg" xmlns:xlink="http://www.w3.org/1999/xlink" x="0px" y="0px"
	 viewBox="0 0 20 20" style="enable-background:new 0 0 20 20;" xml:space="preserve">
<style type="text/css">
	.st0{fill:none;}
	.st1{fill:#6C767D;}
</style>
<rect y="0" class="st0" width="20" height="20"/>
<g>
	<path class="st1" d="M15.8,8l-2.9-2.9c-0.2-0.2-0.5-0.2-0.7,0s-0.2,0.5,0,0.7L13.4,7H8v3h5.3l-1.2,1.2c-0.2,0.2-0.2,0.5,0,0.7
		s0.5,0.2,0.7,0l3-3C16.1,8.6,15.9,8.2,15.8,8z"/>
	<path class="st1" d="M6.9,9.8c0.2-0.2,0.2-0.5,0-0.7s-0.5-0.2-0.7,0l-3,3c-0.3,0.3-0.1,0.7,0,0.9l2.9,2.9c0.2,0.2,0.5,0.2,0.7,0
		c0.2-0.2,0.2-0.5,0-0.7L5.6,14H11v-3H5.7L6.9,9.8z M9,12h0.5H10v1H9.5H9H5.5C5.2,13,5,12.8,5,12.5S5.2,12,5.5,12H9z"/>
</g>
</svg>
