<?xml version="1.0" encoding="utf-8"?>
<!-- Generator: Adobe Illustrator 21.0.0, SVG Export Plug-In . SVG Version: 6.00 Build 0)  -->
<svg version="1.1" id="Слой_1" xmlns="http://www.w3.org/2000/svg" xmlns:xlink="http://www.w3.org/1999/xlink" x="0px" y="0px"
	 viewBox="0 0 40 40" style="enable-background:new 0 0 40 40;" xml:space="preserve">
<style type="text/css">
	.st0{fill:none;}
</style>
<rect x="0" class="st0" width="40" height="40"/>
<path d="M32.9,17.3c-0.4-7.7-4.5-14.4-13-14.4c-7.8,0-12.5,5.6-13,14.5c-1.8,0.6-3,2.4-3,4.6c0,2.5,1.5,4.6,4.3,6
	c2.3,6.2,8.3,9.1,11.8,9.1s9.5-2.9,11.8-9.1c2.8-1.4,4.3-3.5,4.3-6C35.9,19.8,34.6,18,32.9,17.3z M30,25.7c-0.3,0.2-0.6,0.4-0.7,0.8
	c-1.7,5.5-7.1,7.9-9.5,7.9s-7.7-2.4-9.5-7.9c-0.1-0.4-0.4-0.7-0.7-0.8c-2-0.9-3.2-2.2-3.2-3.8c0-0.9,0.4-1.8,1.3-2.1
	c1.9,0.6,6.4-0.5,8.2-7c2.4,6.8,12.1,5.3,14,2.9c0.1,0.8,0.2,1.7,0.2,2.7c0,0.7,0.6,1.3,1.3,1.3c1.1,0,1.8,1.1,1.8,2.2
	C33.3,23.5,32.1,24.8,30,25.7z"/>
</svg>
