<?xml version="1.0" encoding="utf-8"?>
<!-- Generator: Adobe Illustrator 21.0.0, SVG Export Plug-In . SVG Version: 6.00 Build 0)  -->
<svg version="1.1" id="Слой_1" xmlns="http://www.w3.org/2000/svg" xmlns:xlink="http://www.w3.org/1999/xlink" x="0px" y="0px"
	 viewBox="0 0 40 40" style="enable-background:new 0 0 40 40;" xml:space="preserve">
<style type="text/css">
	.st0{fill:none;}
	.st1{fill:blue;}
</style>
<g>
	<path class="st1" d="M32.9,17c-0.5-12.2-9.2-13.6-13-13.6C13.8,3.4,7.4,7,7,17c-1.8,0.6-3.1,2.4-3.1,4.6c0,2.5,1.5,4.6,4.3,6
		c2.3,6.2,8.3,9.1,11.8,9.1s9.5-2.9,11.8-9.1c2.8-1.4,4.3-3.5,4.3-6C36,19.4,34.7,17.6,32.9,17z M30.1,25.4
		c-0.3,0.2-0.6,0.4-0.7,0.8c-1.7,5.5-7.1,7.9-9.5,7.9s-7.7-2.4-9.5-7.9c-0.1-0.4-0.4-0.7-0.7-0.8c-2.1-0.9-3.2-2.3-3.2-3.8
		c0-1.1,0.6-2.2,1.8-2.2c0.1,0,0.2,0,0.3,0v2l1.8,1.2c0-3.3-0.3-9,2.2-11.9c1.9,2,4.5,3.2,7.4,3.2s5.5-1.2,7.3-3.1
		c2.4,3,2.1,8.5,2.1,11.8l1.8-1.2v-2c0.1,0,0.2,0,0.3,0c1.1,0,1.8,1.1,1.8,2.2C33.4,23.2,32.2,24.5,30.1,25.4z"/>
</g>
<rect class="st0" width="40" height="40"/>
</svg>
