<?xml version="1.0" encoding="utf-8"?>
<!-- Generator: Adobe Illustrator 21.0.0, SVG Export Plug-In . SVG Version: 6.00 Build 0)  -->
<svg version="1.1" id="Слой_1" xmlns="http://www.w3.org/2000/svg" xmlns:xlink="http://www.w3.org/1999/xlink" x="0px" y="0px"
	 viewBox="0 0 40 40" style="enable-background:new 0 0 40 40;" xml:space="preserve">
<style type="text/css">
	.st0{fill:none;}
</style>
<rect x="0" class="st0" width="40" height="40"/>
<g>
	<path d="M33.3,19.9c0-0.4,0.1-0.8,0.1-1.2c0-4.7-2.5-8.9-6.1-11.3c0-0.2,0.1-0.4,0.1-0.7c0-3.2-3.3-5.8-7.3-5.8s-7.3,2.6-7.3,5.8
		c0,0.2,0,0.5,0.1,0.7C9,9.8,6.5,13.9,6.5,18.6c0,0.4,0,0.8,0.1,1.2c-1.6,0.7-2.7,2.4-2.7,4.5c0,2.5,1.5,4.6,4.3,6
		c2.4,6.6,9.4,8.7,11.8,8.7c2.3,0,9.4-2.2,11.8-8.7c2.8-1.4,4.3-3.5,4.3-6C36,22.3,34.9,20.6,33.3,19.9z M30.1,28.2
		c-0.3,0.2-0.6,0.4-0.7,0.8c-1.8,5.6-8,7.4-9.5,7.4c-1.6,0-7.7-1.8-9.5-7.4c-0.1-0.4-0.4-0.7-0.7-0.8c-2-1-3.2-2.3-3.2-3.8
		c0-1.1,0.6-2.2,1.8-2.2c0.7,0,1.3-0.6,1.3-1.3c0-0.2,0-0.4,0-0.6c3-0.2,5.6-1.4,7.7-3.2c-0.6-1.5-0.9-3.2-0.9-4.9
		c0-1.5,0.2-2.9,0.7-4.2C17,8.5,17,9,17,9.4c0,7.4,6,13.4,13.4,13.4c0.8,0,1.5-0.1,2.2-0.2c0.4,0.4,0.7,1.1,0.7,1.8
		C33.4,25.9,32.2,27.2,30.1,28.2z"/>
	<path d="M28.2,23.7H11.6c-0.4,0-0.7,0.3-0.7,0.7v2c0,1.5,1.2,2.6,2.6,2.6h3.1c1.5,0,2.6-1.2,2.6-2.6v-0.7c0-0.4,0.3-0.7,0.7-0.7
		s0.7,0.3,0.7,0.7v0.7c0,1.5,1.2,2.6,2.6,2.6h3.1c1.5,0,2.6-1.2,2.6-2.6v-1.9C28.9,24,28.6,23.7,28.2,23.7z M18,26.3
		c0,0.7-0.6,1.3-1.3,1.3h-3.1c-0.7,0-1.3-0.6-1.3-1.3V25H18V26.3z M27.6,26.3c0,0.7-0.6,1.3-1.3,1.3h-3.1c-0.7,0-1.3-0.6-1.3-1.3V25
		h5.7V26.3z"/>
</g>
</svg>
