<?xml version="1.0" encoding="utf-8"?>
<!-- Generator: Adobe Illustrator 21.0.0, SVG Export Plug-In . SVG Version: 6.00 Build 0)  -->
<svg version="1.1" id="Слой_1" xmlns="http://www.w3.org/2000/svg" xmlns:xlink="http://www.w3.org/1999/xlink" x="0px" y="0px"
	 viewBox="0 0 40 40" style="enable-background:new 0 0 40 40;" xml:space="preserve">
<style type="text/css">
	.st0{fill:none;}
</style>
<rect x="0" class="st0" width="40" height="40"/>
<g>
	<path d="M19.6,3.4c-8.9,0-15.2,7.3-15.2,15.8c0,5.4,3.9,10.4,6.5,12.2c2.6,3.1,6.2,5.3,9,5.3c2.5,0,5.7-1.8,8.2-4.4
		c0,0.5,0,1-0.1,1.6c4.1-2.3,7.6-8.2,7.6-14.9C35.5,10.6,28.6,3.4,19.6,3.4z M19.9,34c-2.1,0-5.7-2.3-8-5.7c0-0.1-0.3-0.4-0.9-0.5
		c-1.5-0.2-2.8-2-2.8-3.2c0-0.6,0.2-1.1,0.6-1.5c-0.3-2.8,0-5.8,1.8-7.9c1.9,10,13.5,8.5,16.7,14C25.1,32,21.9,34,19.9,34z"/>
</g>
</svg>
