<?xml version="1.0" encoding="utf-8"?>
<!-- Generator: Adobe Illustrator 21.0.0, SVG Export Plug-In . SVG Version: 6.00 Build 0)  -->
<svg version="1.1" id="Слой_1" xmlns="http://www.w3.org/2000/svg" xmlns:xlink="http://www.w3.org/1999/xlink" x="0px" y="0px"
	 viewBox="0 0 40 40" style="enable-background:new 0 0 40 40;" xml:space="preserve">
<style type="text/css">
	.st0{fill:none;}
	.st1{fill:#3A4A4C;}
</style>
<rect x="0" class="st0" width="40" height="40"/>
<g>
	<path class="st1" d="M33,18.9c-0.7-6-4.4-10.5-9.5-11.8l1.1-4.2h-8.9l1,4.2C11.5,8.4,7.8,12.9,7.1,19c-1.3,0.5-2.7,1.8-2.7,4.3
		c0,3.6,3.5,5.3,4.9,5.8c2,3.6,5.3,8,10.7,8s8.5-4.2,10.7-8c1.4-0.5,4.9-2.3,4.9-5.8C35.7,20.7,34.2,19.4,33,18.9z M29.5,26.7
		c-0.3,0.1-0.6,0.3-0.8,0.6c-2.7,4.9-5.3,7.1-8.6,7.1c-3.2,0-5.9-2.3-8.6-7.1c-0.2-0.3-0.4-0.5-0.8-0.6c0,0-3.5-1.1-3.6-3.5
		c0-1.7,1.1-1.9,1.4-2c0.6-0.1,1.1-0.6,1.2-1.2c0.3-5.3,3.3-9.3,7.7-10.4l0.7,2.9H22l0.7-2.9C27,10.8,30,14.7,30.3,20
		c0,0.6,0.5,1.2,1.2,1.2c0.1,0,1.4,0.2,1.4,2C33,25.6,29.5,26.7,29.5,26.7z"/>
</g>
</svg>
