<?xml version="1.0" encoding="utf-8"?>
<!-- Generator: Adobe Illustrator 21.0.0, SVG Export Plug-In . SVG Version: 6.00 Build 0)  -->
<svg version="1.1" id="Слой_1" xmlns="http://www.w3.org/2000/svg" xmlns:xlink="http://www.w3.org/1999/xlink" x="0px" y="0px"
	 viewBox="0 0 40 40" style="enable-background:new 0 0 40 40;" xml:space="preserve">
<style type="text/css">
	.st0{fill:none;}
	.st1{fill:#3A4A4C;}
</style>
<rect x="0" class="st0" width="40" height="40"/>
<g>
	<path class="st1" d="M33.5,13.1c-0.1-0.2-0.3-0.4-0.4-0.6c-2-6.6-7.7-9.1-13.1-9.1c-5.1,0-10.9,2.5-13,9c-0.2,0.2-0.3,0.5-0.5,0.7
		c-5.2,7.5-3.4,12.1-2.1,14.3c0.9,1.4,2.5,2,3.6,1.6c2.5,5.1,7.7,7.7,12,7.7s9.5-2.6,12-7.7c1.1,0.3,2.7-0.2,3.6-1.6
		C37,25.2,38.8,20.6,33.5,13.1z M30.4,26.2c-1.8,5.8-7.2,7.9-10.3,7.9c-3.2,0-8.5-2.1-10.3-7.9c-0.1-0.4-0.4-0.7-0.7-0.8
		c-2.2-0.9-3.4-2.2-3.4-3.8c0-1.1,0.6-2.2,1.8-2.2c0.7,0,1.3-0.6,1.3-1.3C8.8,9.2,14.6,6,20,6c3.4,0,11.2,1.2,11.2,12.1
		c0,0.7,0.6,1.3,1.3,1.3c1.1,0,1.8,1.1,1.8,2.2c0,1.5-1.2,2.9-3.2,3.8C30.8,25.6,30.5,25.9,30.4,26.2z"/>
	<path class="st1" d="M24.6,16.8c-1.4,0-2.6,0.8-3.3,1.9c-0.4-0.3-0.8-0.5-1.3-0.5s-1,0.2-1.3,0.5c-0.6-1.2-1.9-1.9-3.3-1.9
		c-2.1,0-3.7,1.7-3.7,3.7c0,2.1,1.7,3.7,3.7,3.7c2.1,0,3.7-1.7,3.7-3.7c0,0,0,0,0-0.1l0,0c0-0.5,0.4-0.9,0.9-0.9s0.9,0.4,0.9,0.9
		l0,0c0,0,0,0,0,0.1c0,2.1,1.7,3.7,3.7,3.7c2.1,0,3.7-1.7,3.7-3.7C28.4,18.5,26.7,16.8,24.6,16.8z M15.4,22.9
		c-1.3,0-2.4-1.1-2.4-2.4s1.1-2.4,2.4-2.4s2.4,1.1,2.4,2.4C17.9,21.9,16.8,22.9,15.4,22.9z M24.6,22.9c-1.3,0-2.4-1.1-2.4-2.4
		s1.1-2.4,2.4-2.4s2.4,1.1,2.4,2.4C27.1,21.9,26,22.9,24.6,22.9z"/>
	<path class="st1" d="M25.6,27.1c-0.2-0.3-0.5-0.5-0.8-0.6c0,0-1.3-0.3-3-0.6c0,0-0.2,0-0.3,0c-0.7,0-1.2,0.4-1.4,1c-0.2-0.6-0.8-1-1.4-1
		c-0.1,0-0.3,0-0.3,0c-1.7,0.3-3,0.6-3,0.6c-0.3,0.1-0.6,0.3-0.8,0.6l0,0c-0.4,0.7-1,1.8-1,1.8s1.2,0,2.1,0l0,0c1.4,0,1.4,0,3.1,0
		c0.3,0,0.6-0.1,0.9-0.3s0.8-0.2,1.1,0c0.2,0.2,0.5,0.3,0.9,0.3c1.7,0,1.7,0,3.1,0l0,0c0.8,0,2.1,0,2.1,0S26,27.8,25.6,27.1
		L25.6,27.1z"/>
</g>
</svg>
