<?xml version="1.0" encoding="utf-8"?>
<!-- Generator: Adobe Illustrator 21.0.0, SVG Export Plug-In . SVG Version: 6.00 Build 0)  -->
<svg version="1.1" id="Слой_1" xmlns="http://www.w3.org/2000/svg" xmlns:xlink="http://www.w3.org/1999/xlink" x="0px" y="0px"
	 viewBox="0 0 40 40" style="enable-background:new 0 0 40 40;" xml:space="preserve">
<style type="text/css">
	.st0{fill:none;}
	.st1{fill:#3A4A4C;}
</style>
<rect class="st0" width="40" height="40"/>
<path class="st1" d="M33.2,18.3c-0.1-1.7-0.4-3.2-0.9-4.5l1.9-1.1c0.6-0.4,0.8-1.2,0.5-1.8c-0.4-0.6-1.2-0.8-1.8-0.5l-1.8,1
	c-0.8-1.4-1.9-2.5-3-3.3L29,6.5c0.4-0.6,0.1-1.4-0.5-1.8c-0.6-0.4-1.4-0.1-1.8,0.5l-0.9,1.6c-1.4-0.6-2.9-1-4.5-1.1V3.3
	C21.3,2.6,20.7,2,20,2c-0.7,0-1.3,0.6-1.3,1.3v2.3c-1.5,0.2-3,0.5-4.4,1.2l-1-1.7c-0.4-0.6-1.2-0.8-1.8-0.5C10.9,5,10.7,5.8,11,6.4
	l1,1.8c-1.1,0.9-2.1,1.9-2.9,3.2l-1.8-1c-0.6-0.4-1.4-0.1-1.8,0.5c-0.4,0.6-0.1,1.4,0.5,1.8l1.9,1.1c-0.5,1.3-0.8,2.8-0.9,4.5
	c-1.8,0.6-3.1,2.4-3.1,4.6c0,2.5,1.5,4.6,4.3,6C10.5,35.1,16.5,38,20,38s9.5-2.9,11.8-9.1c2.8-1.4,4.3-3.5,4.3-6
	C36.3,20.7,35,18.9,33.2,18.3z M30.5,26.7c-0.3,0.2-0.6,0.4-0.7,0.8c-1.7,5.5-7.1,7.9-9.5,7.9s-7.7-2.4-9.5-7.9
	c-0.1-0.4-0.4-0.7-0.7-0.8c-2.1-0.9-3.2-2.3-3.2-3.8c0-1.1,0.6-2.2,1.8-2.2c0.7,0,1.3-0.6,1.3-1.3c0-8.3,5.3-11.2,10.3-11.2
	s10.3,2.9,10.3,11.2c0,0.7,0.6,1.3,1.3,1.3c1.1,0,1.8,1.1,1.8,2.2C33.7,24.5,32.6,25.8,30.5,26.7z"/>
</svg>
