<?xml version="1.0" encoding="utf-8"?>
<!-- Generator: Adobe Illustrator 21.0.0, SVG Export Plug-In . SVG Version: 6.00 Build 0)  -->
<svg version="1.1" id="Слой_1" xmlns="http://www.w3.org/2000/svg" xmlns:xlink="http://www.w3.org/1999/xlink" x="0px" y="0px"
	 viewBox="0 0 40 40" style="enable-background:new 0 0 40 40;" xml:space="preserve">
<style type="text/css">
	.st0{fill:none;}
	.st1{fill:#3A4A4C;}
</style>
<rect class="st0" width="40" height="40"/>
<g>
	<path  class="st1" d="M33.3,16.9c-0.5-12.6-9.4-14-13.3-14c-6.2,0-12.8,3.7-13.3,14c-1.9,0.6-3.2,2.5-3.2,4.7c0,2.5,1.6,4.7,4.4,6.1
		c2.3,6.4,8.5,9.4,12.1,9.4s9.8-3,12.1-9.4c2.8-1.4,4.4-3.6,4.4-6.1C36.5,19.3,35.2,17.5,33.3,16.9z M20.1,26.6
		c-5.1-2-6.1,3.8-8.4,0.7c-1.2-1.6-2.8-12.3,0.9-16.8c1.9,2,4.6,3.2,7.5,3.2c3,0,5.6-1.2,7.5-3.2c3.8,4.5,2.1,15.3,0.9,16.8
		C26.2,30.4,25.2,24.5,20.1,26.6z M22.4,33.7c-1,0.2-1.7-0.4-2-1c-0.1-0.1-0.1-0.1-0.2-0.2c-0.1,0-0.2,0.1-0.2,0.2
		c-0.4,0.6-1,1.2-2,1c-2.1-0.4-2.8-2.5-1.3-3.8c0.7-0.6,2.2-0.8,3.6-0.8c1.3,0,2.9,0.3,3.6,0.8C25.2,31.1,24.5,33.3,22.4,33.7z
		 M6.2,21.6c0-1.1,0.7-2.3,1.9-2.3c0,0,0,0,0.1,0c0.2,3,0.5,4.6,0.7,5.9C7.1,24.2,6.2,23,6.2,21.6z M31.5,25.1
		c0.2-1.3,0.5-2.8,0.7-5.8c1.1,0.1,1.7,1.2,1.7,2.3C33.9,22.9,33,24.1,31.5,25.1z"/>
</g>
</svg>
