<?xml version="1.0" encoding="utf-8"?>
<!-- Generator: Adobe Illustrator 21.0.0, SVG Export Plug-In . SVG Version: 6.00 Build 0)  -->
<svg version="1.1" id="Слой_1" xmlns="http://www.w3.org/2000/svg" xmlns:xlink="http://www.w3.org/1999/xlink" x="0px" y="0px"
	 viewBox="0 0 40 40" style="enable-background:new 0 0 40 40;" xml:space="preserve">
<style type="text/css">
	.st0{fill:none;}
	.st1{fill:#3A4A4C;}
</style>
<rect class="st0" width="40" height="40"/>
<path class="st1" d="M37.3,17.1c0.2,0,0.5-0.1,0.7-0.2c0.5-0.4,0.6-1.1,0.2-1.6c-2.5-3.1-4.9-5.3-7.2-6.7c1.3,0.6,2.6,1.4,4,2.4
	c0.2,0.1,0.4,0.2,0.6,0.2c0.3,0,0.7-0.2,0.9-0.5c0.4-0.5,0.2-1.2-0.3-1.5c-3.1-2.2-5.9-3.5-8.4-3.9c0.7,0.1,1.5,0.2,2.4,0.4
	c0.6,0.2,1.2-0.2,1.4-0.8c0.1-0.6-0.2-1.2-0.8-1.3c-3.9-1-6.9-0.7-9,0.9c0.6-0.9,1.3-1.4,1.4-1.5c0.5-0.4,0.6-1.1,0.2-1.5
	c-0.4-0.5-1.1-0.6-1.6-0.2c-0.1,0.1-1.1,0.8-1.9,2.1c-0.8-1.3-1.9-2.1-1.9-2.1c-0.5-0.4-1.2-0.3-1.5,0.2C16.2,2,16.3,2.7,16.8,3
	c0.1,0,0.8,0.6,1.4,1.5c-2.1-1.6-5.1-2-9-1c-0.6,0.1-1,0.7-0.8,1.3c0.1,0.6,0.7,1,1.3,0.8c0.8-0.2,1.6-0.3,2.3-0.4
	C9.6,5.6,6.8,6.9,3.8,9.1c-0.5,0.4-0.6,1-0.3,1.5c0.2,0.3,0.6,0.5,0.9,0.5c0.2,0,0.4-0.1,0.6-0.2c1.4-1,2.8-1.8,4-2.4
	c-2.4,1.4-4.8,3.6-7.2,6.7c-0.4,0.5-0.3,1.2,0.2,1.6C2.2,17,2.4,17,2.7,17s0.6-0.1,0.9-0.4c0.9-1.1,1.8-2.2,2.7-3.1
	c-1.6,1.9-3,4.5-4.2,7.9c-0.2,0.6,0.1,1.2,0.7,1.4c0.1,0,0.2,0.1,0.3,0.1c0.3,0,0.6-0.1,0.8-0.3c-0.3,1-0.5,2.1-0.6,3.3
	c-0.1,0.6,0.3,1.2,1,1.2h0.1c0.4,0,0.8-0.2,1-0.6c0.2,0.6,0.6,1.1,1,1.7c0.1,0.8,0.2,1.7,0.4,2.6c0.1,0.5,0.6,0.9,1.1,0.9
	c0.1,0,0.1,0,0.2,0c0.6-0.1,1-0.7,0.9-1.3c0-0.1,0-0.2,0-0.2s0.1,0,0.1,0.1c2.1,5.9,7.8,8.6,11.1,8.6s8.9-2.7,11.1-8.6
	c0,0,0.1,0,0.1-0.1c0,0.1,0,0.2,0,0.2c-0.1,0.6,0.3,1.2,0.9,1.3c0.1,0,0.1,0,0.2,0c0.5,0,1-0.4,1.1-0.9c0.2-0.9,0.3-1.8,0.4-2.6
	c0.4-0.5,0.8-1.1,1-1.7c0.2,0.3,0.6,0.6,1,0.6H36c0.6-0.1,1-0.6,1-1.2c-0.2-1.2-0.4-2.3-0.6-3.3c0.2,0.2,0.5,0.3,0.8,0.3
	c0.1,0,0.2,0,0.3-0.1c0.6-0.2,0.9-0.8,0.7-1.4c-1.1-3.5-2.6-6-4.2-7.9c0.9,0.9,1.8,1.9,2.7,3.1C36.8,17,37,17.1,37.3,17.1z M32.3,19
	c0.3,0.6,0.6,1.2,0.8,1.9c-0.1-0.1-0.1-0.1-0.2-0.1C32.8,20.1,32.5,19.6,32.3,19z M6.9,20.7c-0.1,0-0.1,0.1-0.2,0.1
	c0.3-0.7,0.5-1.3,0.8-1.9C7.3,19.6,7.1,20.1,6.9,20.7z M29.5,28.3c-0.3,0.1-0.6,0.4-0.7,0.8c-1.6,5.2-6.7,7.4-8.9,7.4
	s-7.3-2.2-8.9-7.4c-0.1-0.3-0.4-0.6-0.7-0.8c-0.8-0.4-1.5-0.8-2-1.3c-0.1-1.6,0.1-3,0.4-4.3c0.1,0,0.1,0,0.2,0
	c0.7,0,1.2-0.6,1.2-1.2c0-1.1,0.1-2.2,0.3-3.1c0.2-0.3,0.4-0.6,0.5-0.9c-0.3,1.6-0.4,3.4-0.1,5.3c0.1,0.6,0.6,1,1.1,1H12
	c0.6-0.1,1-0.6,0.9-1.2c-0.3-2.4-0.1-4.5,0.6-6.2c-0.3,1-0.5,2.2-0.5,3.6c0,0.6,0.5,1.1,1.1,1.1s1.1-0.5,1.1-1.1c0-2.9,1-4.8,2.1-6
	c-0.4,1.2-0.6,2.6-0.3,4c0.1,0.5,0.6,0.9,1.1,0.9c0.1,0,0.2,0,0.2,0c0.6-0.1,1-0.7,0.8-1.3c-0.3-1.3,0.1-2.6,0.6-3.7
	c0.5,1.1,0.9,2.4,0.6,3.7c-0.1,0.6,0.2,1.2,0.8,1.3c0.1,0,0.2,0,0.2,0c0.5,0,1-0.3,1.1-0.9c0.3-1.4,0.1-2.8-0.3-4
	c1.1,1.2,2.1,3.1,2.1,6c0,0.6,0.5,1.1,1.1,1.1s1.1-0.5,1.1-1.1c0-1.6-0.3-3-0.7-4.1c0.9,1.9,1.2,4.1,0.8,6.8
	c-0.1,0.6,0.3,1.2,0.9,1.2c0.1,0,0.1,0,0.2,0c0.5,0,1-0.4,1.1-1c0.3-1.9,0.2-3.6-0.1-5.2c0.2,0.3,0.3,0.6,0.5,0.8
	c0.1,0.9,0.2,1.9,0.2,3c0,0.7,0.6,1.2,1.2,1.2c0.1,0,0.1,0,0.2,0c0.3,1.3,0.4,2.8,0.4,4.4C31,27.5,30.3,27.9,29.5,28.3z"/>
</svg>
