<?xml version="1.0" encoding="utf-8"?>
<!-- Generator: Adobe Illustrator 21.0.0, SVG Export Plug-In . SVG Version: 6.00 Build 0)  -->
<svg version="1.1" id="Слой_1" xmlns="http://www.w3.org/2000/svg" xmlns:xlink="http://www.w3.org/1999/xlink" x="0px" y="0px"
	 viewBox="0 0 40 40" style="enable-background:new 0 0 40 40;" xml:space="preserve">
<style type="text/css">
	.st0{fill:none;}
	.st1{fill:#3A4A4C;}
</style>
<rect class="st0" width="40" height="40"/>
<g>
	<path class="st1" d="M20,2.9C-0.8,2.9-0.8,31.4,9.8,37l3.8-2.4c2.2,1.5,4.5,2.3,6.4,2.3s4.2-0.8,6.4-2.3l3.8,2.4C40.8,31.4,40.7,2.9,20,2.9z
		 M28.8,27.5c-1.7,3.5-4.4,5.4-4.8,5.7c-1.4,0.8-2.9,1.3-4,1.3s-2.6-0.5-4-1.3c-0.4-0.3-3.1-2.3-4.8-5.7C9.5,27.2,8,25.2,8,23.8
		c0-1.3,0.9-2.2,1.9-2.5c0-1,0.2-2,0.5-3.1l0,0c0.6-2.2,1.5-4.2,2.8-6c-0.7,1.9-1.1,3.9-1.1,6h4.1l1.5-4.6v4.6h10.4
		c-0.1-1.9-0.4-3.8-1-5.5c1.2,1.6,2,3.5,2.6,5.5l0,0c0.3,1.1,0.4,2.1,0.5,3.1c1,0.3,1.9,1.2,1.9,2.5C32,25.1,30.5,27.2,28.8,27.5z"
		/>
</g>
</svg>
