<?xml version="1.0" encoding="utf-8"?>
<!-- Generator: Adobe Illustrator 21.0.0, SVG Export Plug-In . SVG Version: 6.00 Build 0)  -->
<svg version="1.1" id="Слой_1" xmlns="http://www.w3.org/2000/svg" xmlns:xlink="http://www.w3.org/1999/xlink" x="0px" y="0px"
	 viewBox="0 0 40 40" style="enable-background:new 0 0 40 40;" xml:space="preserve">
<style type="text/css">
	.st0{fill:none;}
</style>
<rect class="st0" width="40" height="40"/>
<path d="M37.3,18.2c0-1-2-1.8-2.2-2.7c-0.2-1,1.5-2.4,1.2-3.3c-0.3-0.9-2.5-0.9-3-1.8c-0.5-0.8,0.6-2.7,0-3.5
	c-0.6-0.7-2.7,0-3.4-0.6S29.5,3.5,28.7,3s-2.5,0.9-3.4,0.6C24.4,3.3,24,1.1,23,1c-0.9-0.2-2.1,1.7-3,1.7c-1,0-2.1-1.9-3-1.7
	c-1,0.2-1.4,2.3-2.3,2.6s-2.6-1-3.4-0.6c-0.8,0.5-0.5,2.6-1.2,3.3C9.4,6.9,7.3,6.2,6.7,6.9c-0.6,0.7,0.4,2.6,0,3.5
	c-0.5,0.8-2.7,0.9-3,1.8s1.3,2.3,1.2,3.3c-0.2,0.9-2.2,1.7-2.2,2.7s2,1.8,2.2,2.7c0.2,1-1.5,2.4-1.2,3.3c0.1,0.3,0.5,0.5,0.9,0.7
	c0,0.3-0.1,0.6-0.1,0.9c0,3.6,3.5,5.3,4.9,5.8c2.7,4.7,6.7,7.5,10.6,7.5c4,0,7.9-2.8,10.6-7.5c1.4-0.5,4.9-2.3,4.9-5.8
	c0-0.3,0-0.6-0.1-0.9c0.4-0.2,0.8-0.4,0.9-0.7c0.3-0.9-1.3-2.3-1.2-3.3C35.2,19.9,37.3,19.2,37.3,18.2z M29.2,29.2
	c-0.3,0.1-0.6,0.3-0.8,0.6c-2.2,4.2-5.5,6.7-8.6,6.7s-6.3-2.5-8.6-6.6c-0.2-0.3-0.4-0.5-0.8-0.6c0,0-3.5-1.1-3.6-3.5
	c0-1.7,1.1-1.9,1.4-2c0.1,0,0.2,0,0.3-0.1v1.1c0,0.3,0.3,0.6,0.6,0.6c0.3,0,0.6-0.3,0.6-0.6c0-0.1,0-3.1,0-3
	c0.1-3.4,4.8-7.5,9.9-3.6c4.7-3.9,9.9,0.2,9.9,3.6c0-0.1,0,3,0,3c0,0.3,0.3,0.6,0.6,0.6s0.6-0.3,0.6-0.6v-1.1c0.1,0,0.2,0.1,0.3,0.1
	s1.4,0.2,1.4,2C32.7,28.1,29.2,29.2,29.2,29.2z"/>
</svg>
