<?xml version="1.0" encoding="utf-8"?>
<!-- Generator: Adobe Illustrator 21.0.0, SVG Export Plug-In . SVG Version: 6.00 Build 0)  -->
<svg version="1.1" id="Слой_1" xmlns="http://www.w3.org/2000/svg" xmlns:xlink="http://www.w3.org/1999/xlink" x="0px" y="0px"
	 viewBox="0 0 40 40" style="enable-background:new 0 0 40 40;" xml:space="preserve">
<style type="text/css">
	.st0{fill:none;}
	.st1{fill:#3A4A4C;}
</style>
<rect class="st0" width="40" height="40"/>
<g>
	<path class="st1" d="M35.6,23.9c0-1.6-0.5-2.7-1.3-3.4c-0.2-0.2-0.3-0.3-0.5-0.4v-3.8C33.8,9,27.6,3.2,20,3.2S6.2,9.1,6.2,16.4v3.8
		c-0.2,0.1-0.3,0.3-0.5,0.4c-0.7,0.7-1.3,1.8-1.3,3.4l0,0l0,0c0,1.7,0.8,2.9,1.8,3.9V35h7.9c0.7,0.5,1.4,0.8,2.1,1.1
		c1.2,0.5,2.5,0.7,3.8,0.7c1.3,0,2.6-0.3,3.8-0.7c0.7-0.3,1.5-0.7,2.1-1.1h7.9v-7.2C34.8,26.9,35.6,25.6,35.6,23.9L35.6,23.9
		L35.6,23.9z M20.1,34.2c-0.4,0-0.8,0-1.2-0.1c-2.8-0.5-5.5-2.6-7.4-6.1c0-0.1-0.1-0.1-0.1-0.2c-0.2-0.2-0.4-0.4-0.6-0.4
		c0,0-3.5-1.1-3.6-3.5c0-1.7,1.1-1.9,1.4-2c0.6-0.1,1.1-0.6,1.2-1.2c0-0.8,0.2-1.7,0.4-2.4h2.6c0.6-2.7,2.3-5.7,3.5-6.9
		c-0.9,2.3-1,5.3-1,6.9h14.9c0.2,0.8,0.3,1.6,0.4,2.4c0,0.6,0.5,1.2,1.2,1.2h0.1c0.3,0.1,1.3,0.4,1.3,2c0,1.2-0.9,2.1-1.8,2.6
		c-0.9,0.6-1.8,0.9-1.8,0.9c-0.3,0.1-0.6,0.3-0.8,0.6c-1.9,3.4-4.5,5.6-7.4,6.1C20.9,34.2,20.5,34.2,20.1,34.2z"/>
</g>
</svg>
