<?xml version="1.0" encoding="utf-8"?>
<!-- Generator: Adobe Illustrator 21.0.0, SVG Export Plug-In . SVG Version: 6.00 Build 0)  -->
<svg version="1.1" id="Слой_1" xmlns="http://www.w3.org/2000/svg" xmlns:xlink="http://www.w3.org/1999/xlink" x="0px" y="0px"
	 viewBox="0 0 40 40" style="enable-background:new 0 0 40 40;" xml:space="preserve">
<style type="text/css">
	.st0{fill:none;}
	.st1{fill:#3A4A4C;}
</style>
<rect x="0" class="st0" width="40" height="40"/>
<g>
	<path class="st1" d="M19.9,3.8C9.4,3.8,5.6,12.4,5.4,23.2c-0.1,4.7,0.3,8.5-5.3,9.2c2.6,3.3,8.3,5.3,13.5,1.6c2.2,1.5,4.5,2.3,6.4,2.3
		s4.2-0.8,6.4-2.3c5.2,3.8,10.9,1.7,13.5-1.6c-5.6-0.7-5.3-4.5-5.3-9.2C34.2,12.3,31.3,3.8,19.9,3.8z M19.9,33.7
		c-1.1,0-2.6-0.5-4-1.3c-0.4-0.3-3.1-2.2-4.8-5.7c-1.7-0.2-3.2-2.3-3.2-3.7c0-1.3,0.9-2.2,1.9-2.5c0-3.2,0.9-7,3-9
		c-0.7,1.9-1.1,3.4-1.2,5.5h4.5l1.5-4.6V17h10.6c-0.1-2.1-0.5-3.6-1.2-5.5c2,2,3,5.9,3,9c1,0.3,1.9,1.2,1.9,2.5
		c0,1.4-1.5,3.5-3.2,3.7c-1.7,3.5-4.4,5.4-4.8,5.7C22.4,33.2,21,33.7,19.9,33.7z"/>
</g>
</svg>
