<?xml version="1.0" encoding="utf-8"?>
<!-- Generator: Adobe Illustrator 21.0.0, SVG Export Plug-In . SVG Version: 6.00 Build 0)  -->
<svg version="1.1" id="Слой_1" xmlns="http://www.w3.org/2000/svg" xmlns:xlink="http://www.w3.org/1999/xlink" x="0px" y="0px"
	 viewBox="0 0 40 40" style="enable-background:new 0 0 40 40;" xml:space="preserve">
<style type="text/css">
	.st0{fill:none;}
	.st1{fill:#3A4A4C;}
</style>
<rect class="st0" width="40" height="40"/>
<g>
	<path class="st1" d="M33.5,20.4c3.8-14-9.9-21.3-16.7-18.8c0,0,3.5,1.2,3.2,2.5c-1.5-0.8-4.9-2.2-9.4-0.6c3.9,0,4.9,1.4,4.9,1.4
		s-2.8-0.5-6.4,1.4c1.8-0.4,2.6-0.2,2.6,0.5c-2.4,0-7.9,4.7-5,13.5c-1.4,0.8-2.4,2.3-2.4,4.2c0,1.4,0.6,4,4.2,5.7
		c2.3,6.2,9,8.7,11.5,8.7c2.4,0,9.2-2.6,11.5-8.7c3.6-1.8,4.2-4.3,4.2-5.7C35.8,22.7,34.8,21.1,33.5,20.4z M30,28
		c-0.3,0.1-0.6,0.4-0.7,0.8c-1.7,5.2-7.6,7.5-9.2,7.5c-1.9,0-7.5-2.3-9.2-7.5c-0.1-0.4-0.4-0.7-0.7-0.8c-2-0.9-3.1-2.1-3.1-3.6
		c0-0.6,0.3-1.3,0.8-1.7c0.5,1.1,1.2,2.2,1.9,3.4c-0.5-8.5,0.5-10.8,3.2-12.9c0.2,1.8,1.1,4.4,5.8,6.1c-0.8-1-1.2-3.1-0.6-5.1
		c2,4,8,5.9,8,5.9s-1.8-3.5-1.3-6.5c3.6,5.6,5.9,3.9,6.3,12.4c0,0,0.9-1.8,1.5-3.3c0.4,0.4,0.6,1,0.6,1.5C33.1,25.9,32,27.2,30,28z"
		/>
</g>
</svg>
