<?xml version="1.0" encoding="utf-8"?>
<!-- Generator: Adobe Illustrator 21.0.0, SVG Export Plug-In . SVG Version: 6.00 Build 0)  -->
<svg version="1.1" id="Слой_1" xmlns="http://www.w3.org/2000/svg" xmlns:xlink="http://www.w3.org/1999/xlink" x="0px" y="0px"
	 viewBox="0 0 40 40" style="enable-background:new 0 0 40 40;" xml:space="preserve">
<style type="text/css">
	.st0{fill:none;}
</style>
<rect x="-0.2" class="st0" width="40" height="40"/>
<path d="M32.4,21c0-0.1,0-0.3-0.1-0.4l5.1-1.3l-6.2-2.7l0,0l4.6-5L29,11.7l2-6.5l-6.1,3l-1.1-6.7l-4,5.5l-4-5.5l-1.1,6.7l-6.1-3
	l2,6.5l-6.8-0.1l4.6,5l0,0l-6.2,2.7l5.1,1.3c0,0.1,0,0.3-0.1,0.4c-1.3,0.5-2.7,1.8-2.7,4.3c0,3.6,3.5,5.3,4.9,5.8
	c2.7,4.7,6.2,7.5,10.2,7.5s7.5-2.8,10.2-7.5c1.4-0.5,4.9-2.3,4.9-5.8C35,22.8,33.6,21.5,32.4,21z M28.8,28.8
	c-0.3,0.1-0.6,0.3-0.8,0.6c-2.3,4.1-5,6.6-8.2,6.6c-3.1,0-5.9-2.5-8.2-6.6c-0.2-0.3-0.4-0.5-0.8-0.6c0,0-3.5-1.1-3.6-3.5
	c0-1.7,1.1-1.9,1.4-2c0.4,0,0.8-0.3,1-0.7l0,0c1.4-1.6,0.6-6.4,4.4-6.4c0.7,0,1.3,0.2,1.8,0.6l0,0c0.1,0.1,0.1,0.1,0.2,0.2l0,0
	c1,0.8,2.3,1.3,3.7,1.3c1.4,0,2.7-0.5,3.7-1.3c0.1-0.1,0.1-0.1,0.2-0.2c0.5-0.4,1.1-0.6,1.8-0.6c1.1,0,2,0.6,2.5,1.5
	c1.1,1.2,0.7,3,1.8,4.7c0.2,0.4,0.6,0.8,1.1,0.8c0.1,0,1.4,0.2,1.4,2C32.4,27.5,28.9,28.7,28.8,28.8z"/>
</svg>
